<?xml version="1.0" encoding="UTF-8" standalone="no"?>
<!DOCTYPE svg PUBLIC "-//W3C//DTD SVG 1.1//EN" "http://www.w3.org/Graphics/SVG/1.1/DTD/svg11.dtd">
<!-- Created with Vectornator (http://vectornator.io/) -->
<svg height="100%" stroke-miterlimit="10" style="fill-rule:nonzero;clip-rule:evenodd;stroke-linecap:round;stroke-linejoin:round;" version="1.1" viewBox="0 0 399.464 312.55" width="100%" xml:space="preserve" xmlns="http://www.w3.org/2000/svg" xmlns:vectornator="http://vectornator.io" xmlns:xlink="http://www.w3.org/1999/xlink">
<defs/>
<clipPath id="ArtboardFrame">
<rect height="312.55" width="399.464" x="0" y="0"/>
</clipPath>
<g clip-path="url(#ArtboardFrame)" id="Без-названия" vectornator:layerName="Без названия">
<g opacity="1" vectornator:layerName="Layer">
<path d="M166.6 9.67072C163.4-1.92928 146.6-0.0292806 143.6 10.6707C132.6 4.07072 117.8 2.97072 117.6 19.6707C105 17.3707 97.1997 25.5707 102.6 37.6707C93.2997 42.0707 93.7997 51.4707 99.5997 58.6707C91.4997 63.2707 97.4997 68.9707 96.9997 75.6707C96.5997 81.0707 92.5997 84.8707 98.5997 88.6707C96.3997 94.9707 97.3997 100.171 104.6 101.671C101.2 107.771 100.5 114.171 107.6 117.671C103.4 124.371 105 130.671 113.6 131.671L113.6 132.671C96.6997 138.971 98.8997 161.271 117.6 161.671L116.6 171.671L115.6 171.671C112 166.571 104.8 166.771 99.8997 163.271C95.1997 160.071 94.7997 153.571 90.3997 150.671C81.9997 145.171 69.6997 152.471 71.4997 162.571C72.1997 166.771 77.7997 167.471 77.8997 171.671C77.9997 176.771 72.5997 181.571 71.5997 186.671C61.4997 180.571 66.4997 164.271 53.4997 158.771C41.0997 153.371 33.7997 173.171 40.5997 181.671C39.1997 184.471 40.0997 185.971 42.5997 187.671C40.7997 198.071 50.7997 208.171 53.5997 217.671C42.4997 210.071 39.7997 196.571 29.5997 189.371C21.8997 183.871 18.0997 193.271 20.6997 199.671C23.6997 207.271 29.1997 213.471 30.5997 221.671L29.5997 221.671C20.0997 203.371-0.700289 219.271 6.59971 235.671C-8.60029 244.171 6.29971 258.571 17.5997 261.171C22.7997 262.271 27.3997 259.371 32.5997 260.671L32.5997 261.671C25.2997 270.171 35.1997 278.471 42.5997 282.171C61.7997 291.671 83.6997 298.871 104.6 303.771C170.4 319.371 241.2 310.771 307.6 302.871C328.8 300.271 365.3 301.471 375.6 279.671C364.3 270.071 392.3 259.271 399.6 253.671L399.6 252.671C394.7 248.471 389.4 244.471 383.6 241.671C387.3 230.371 390.6 219.071 393.9 207.671C394.7 204.771 397.9 198.171 395 195.671C392.3 193.471 386.7 194.871 383.6 195.271C375.5 196.271 366.7 196.671 358.6 196.671C370.4 175.771 363.6 145.771 364.6 122.671C335.9 124.971 302 131.571 283.6 155.671C282 151.971 280 148.871 277.6 145.671C290.7 139.871 296 121.471 278.6 117.671C282.5 111.171 287.2 96.3707 276.6 94.6707C280.9 89.2707 283.2 74.0707 276.6 69.6707C281.8 61.7707 286 54.1707 276.6 47.6707C288.1 41.5707 286 25.8707 272.6 24.6707C273.9 22.1707 274.8 19.7707 276.6 17.6707C275.6 13.6707 275.6 8.97072 272.4 5.97072C265.2-0.529281 253.5 7.07072 249.6 13.6707L247.6 13.6707C242.7-1.52928 225.5-6.32928 217.6 10.6707L216.6 10.6707C215.4-5.12928 200.2-0.0292806 193.6 8.67072C187.1-5.92928 175 1.37072 166.6 9.67072Z" fill="#fde78d" fill-rule="nonzero" opacity="1" stroke="none" vectornator:layerName="path"/>
<path d="M107.6 73.6707L108.6 74.6707L107.6 73.6707Z" fill="#fbfafa" fill-rule="nonzero" opacity="1" stroke="none" vectornator:layerName="path"/>
<path d="M108.6 74.6707L108.6 75.6707L111.6 75.6707C110.4 74.9707 110.1 74.9707 108.6 74.6707ZM193.6 86.6707C188.8 92.2707 185 90.5707 178.6 91.9707C168.9 94.1707 161.3 98.4707 150.6 96.6707C146.8 104.371 138.9 108.871 133.1 115.271C130.2 118.571 129.4 123.071 126.9 126.571C124 130.471 119.1 131.271 118.7 136.671C116.4 161.671 135.4 182.371 157.6 191.171C185.6 202.271 227.8 195.071 251.5 176.071C269.7 161.571 278 135.071 268.6 113.671L265.6 114.671C262.3 106.371 255.6 101.671 250.6 94.6707C245 95.4707 241.4 92.9707 239.6 87.6707C233.8 88.7707 229 86.2707 223.6 86.8707C213.9 87.9707 203.1 90.5707 193.6 86.6707Z" fill="#ffffff" fill-rule="nonzero" opacity="1" stroke="none" vectornator:layerName="path"/>
<path d="M200.6 93.6707C197.8 98.2707 192.4 98.0707 187.6 96.6707L187.6 94.6707L188.6 93.6707C192.8 94.3707 196.4 93.9707 200.6 93.6707Z" fill="#fde78d" fill-rule="nonzero" opacity="1" stroke="none"/>
<path d="M193.6 99.9707C197.7 99.5707 201.8 97.1707 205.6 95.6707C205.8 106.071 188.3 102.271 182.6 100.671C185.5 96.4707 189.3 100.271 193.6 99.9707Z" fill="#fde78d" fill-rule="nonzero" opacity="1" stroke="none"/>
<path d="M205.2 103.771C208 100.171 212.6 100.871 216.6 100.171C227.1 98.3707 249.4 95.2707 250.6 110.671C232.8 109.871 221.5 111.771 204.6 116.671C203.7 112.671 202.5 107.371 205.2 103.771Z" fill="#000000" fill-rule="nonzero" opacity="1" stroke="none"/>
<path d="M165.6 104.571C168.9 103.671 172 101.071 175.6 102.271C180.3 103.971 183.6 115.471 178.3 118.071C172.3 121.071 161.4 120.271 154.6 121.871C148.6 123.271 142.8 125.371 136.6 125.671C140.2 112.871 154.3 107.571 165.6 104.571Z" fill="#000000" fill-rule="nonzero" opacity="1" stroke="none"/>
<path d="M238.2 129.971C235.1 132.771 229.5 133.271 225.6 133.971C212.2 136.671 206.2 121.171 220.6 118.171C226.4 116.971 249.3 119.871 238.2 129.971Z" fill="#000000" fill-rule="nonzero" opacity="1" stroke="none"/>
<path d="M228.6 130.671C228.2 127.171 227.8 124.171 228.6 120.671C212.9 120.671 212.1 133.771 228.6 130.671ZM275.6 120.671C275.6 128.071 276 135.371 274.6 142.671C289.1 140.771 292.2 121.071 275.6 120.671Z" fill="#ffffff" fill-rule="nonzero" opacity="1" stroke="none" vectornator:layerName="path"/>
<path d="M193.6 121.671C193.2 131.771 187.7 142.571 190 152.671C191.1 157.371 195.3 162.571 200.6 160.171C205.5 157.871 205.5 152.271 209.6 149.671C209.5 155.871 207.8 160.471 201.6 162.671L201.6 163.671C212.4 163.671 237.7 159.171 241.6 172.671C226.1 177.071 209.4 176.071 193.6 179.571C184.3 181.671 171.8 186.371 162.6 182.671C168 172.071 185.3 165.171 196.6 164.671L196.6 163.671C179.8 160.271 187.9 132.671 191.6 121.671L193.6 121.671Z" fill="#000000" fill-rule="nonzero" opacity="1" stroke="none"/>
<path d="M282.6 134.671L282.6 123.671C285.9 126.971 286.9 131.871 282.6 134.671Z" fill="#fde78d" fill-rule="nonzero" opacity="1" stroke="none"/>
<path d="M174.2 127.671C185.8 135.271 168.4 142.171 162.6 143.171C148.7 145.571 142.8 130.071 158.6 127.171C162.6 126.371 170.6 125.371 174.2 127.671Z" fill="#000000" fill-rule="nonzero" opacity="1" stroke="none"/>
<path d="M287.6 167.671C294.9 161.971 300.1 155.571 308.6 150.971C325 142.171 342.4 138.871 357.6 127.671C352.1 125.671 344.3 128.871 338.6 129.671C318.7 132.471 281.7 141.971 287.6 167.671ZM360.6 127.671C355.1 138.171 350.2 157.071 353.6 168.671C350.7 171.171 350.8 176.971 349.6 180.671C346.4 190.071 337.1 201.171 349.6 207.671C362.7 189.271 363.8 168.471 361.8 146.671C361.2 140.571 363 133.371 360.6 127.671ZM163.6 139.671C163 136.171 163 133.171 163.6 129.671C160 129.871 153.5 129.971 151.8 133.871C149 140.371 160.2 140.671 163.6 139.671Z" fill="#000000" fill-rule="nonzero" opacity="1" stroke="none" vectornator:layerName="path"/>
<path d="M200.6 129.671L199.6 130.671C200.8 131.871 201 131.971 202.6 132.671C201.9 131.071 201.8 130.871 200.6 129.671Z" fill="#fde78d" fill-rule="nonzero" opacity="1" stroke="none" vectornator:layerName="path"/>
<path d="M353.6 132.671C334.3 146.671 293.4 148.071 289.6 176.671C296.4 176.771 303 178.271 309.6 179.671C312.2 170.271 325.7 163.971 331.4 174.671C334.2 179.971 331.4 184.771 329.6 189.671C332.6 190.971 336.8 195.971 340.3 194.471C343.5 193.071 345.5 186.771 346.6 183.671C350.8 171.971 350.6 158.871 352.1 146.671C352.7 142.171 356 136.771 353.6 132.671Z" fill="#fde78d" fill-rule="nonzero" opacity="1" stroke="none" vectornator:layerName="path"/>
<path d="M361.6 132.671L361.6 139.671L362.6 139.671C362.6 137.171 362.6 134.971 361.6 132.671Z" fill="#fdf0b6" fill-rule="nonzero" opacity="1" stroke="none" vectornator:layerName="path"/>
<path d="M182.6 133.671L182.6 135.671L185.6 135.671L185.6 133.671L182.6 133.671Z" fill="#fde78d" fill-rule="nonzero" opacity="1" stroke="none" vectornator:layerName="path"/>
<path d="M118.6 158.671C116.8 150.771 115.6 143.771 115.6 135.671C98.8997 137.571 102.9 158.571 118.6 158.671Z" fill="#ffffff" fill-rule="nonzero" opacity="1" stroke="none" vectornator:layerName="path"/>
<path d="M201.6 141.671C199.8 140.671 200 140.771 199.6 138.671C200.8 139.871 200.9 140.071 201.6 141.671Z" fill="#fde78d" fill-rule="nonzero" opacity="1" stroke="none"/>
<path d="M208.6 141.671C209.3 140.271 209.6 139.871 210.6 138.671C211.7 140.771 210.9 141.171 208.6 141.671Z" fill="#fde78d" fill-rule="nonzero" opacity="1" stroke="none"/>
<path d="M226.6 138.671L226.6 140.671L223.6 140.671L223.6 138.671L226.6 138.671Z" fill="#fde78d" fill-rule="nonzero" opacity="1" stroke="none"/>
<path d="M235.6 139.671C234.9 141.271 234.8 141.471 233.6 142.671L233.6 139.671L235.6 139.671Z" fill="#fde78d" fill-rule="nonzero" opacity="1" stroke="none"/>
<path d="M109.6 141.671C109.7 145.271 110.4 148.271 111.6 151.671C106.7 150.071 106.6 146.171 107.6 141.671L109.6 141.671Z" fill="#fde78d" fill-rule="nonzero" opacity="1" stroke="none"/>
<path d="M172.6 143.671C172.1 146.071 172 146.171 169.6 146.671L169.6 144.671L170.6 143.671L172.6 143.671Z" fill="#fde78d" fill-rule="nonzero" opacity="1" stroke="none"/>
<path d="M181.6 148.671L180.6 148.671C180.2 146.771 180.2 146.571 180.6 144.671C181.8 146.471 181.8 146.471 181.6 148.671Z" fill="#fde78d" fill-rule="nonzero" opacity="1" stroke="none"/>
<path d="M224.6 147.671C223.4 148.871 223.2 148.971 221.6 149.671C221.6 147.871 221.6 148.171 222.6 146.671L224.6 147.671Z" fill="#fde78d" fill-rule="nonzero" opacity="1" stroke="none"/>
<path d="M346.6 149.671C343.9 150.571 343.2 150.571 342.6 147.671C344.4 148.271 345.1 148.571 346.6 149.671Z" fill="#fde78d" fill-rule="nonzero" opacity="1" stroke="none"/>
<path d="M148.6 148.671C147.4 149.871 147.2 149.971 145.6 150.671C146.6 148.871 146.5 149.071 148.6 148.671Z" fill="#fde78d" fill-rule="nonzero" opacity="1" stroke="none"/>
<path d="M75.5997 155.671C79.8997 155.271 82.8997 154.871 84.5997 150.671C80.5997 151.271 77.6997 152.071 75.5997 155.671ZM86.5997 151.671C85.2997 157.471 90.2997 161.771 90.5997 167.671C94.3997 162.571 92.6997 153.871 86.5997 151.671Z" fill="#000000" fill-rule="evenodd" opacity="1" stroke="none" vectornator:layerName="path"/>
<path d="M160.6 151.671C161.5 153.771 161.5 153.771 163.6 154.671C163.1 152.271 163 152.171 160.6 151.671ZM334.6 153.671C333.6 155.171 333.6 154.871 333.6 156.671L337.6 157.671C336.6 156.071 335.9 154.971 334.6 153.671ZM318.6 154.671C317.6 156.171 317.6 155.871 317.6 157.671L321.6 158.671C320.7 156.771 320.2 156.071 318.6 154.671ZM309.6 155.671C309.8 158.371 309.9 159.071 312.6 159.671C311.7 157.771 311.2 157.071 309.6 155.671Z" fill="#fde78d" fill-rule="nonzero" opacity="1" stroke="none" vectornator:layerName="path"/>
<path d="M78.5997 159.671C84.7997 162.171 85.4997 166.471 85.5997 172.671C92.6997 167.271 84.2997 151.671 78.5997 159.671ZM73.5997 158.671C74.0997 164.871 79.0997 165.371 82.5997 169.671L83.5997 169.671C83.0997 163.771 78.5997 161.171 73.5997 158.671ZM49.5997 159.671C44.9997 168.271 51.0997 193.171 59.5997 198.671C58.7997 203.671 59.2997 208.971 64.5997 210.671C64.6997 213.971 64.8997 215.671 67.5997 217.671C73.2997 206.471 70.1997 199.971 68.5997 187.671L64.5997 187.671L65.5997 182.671C64.0997 181.671 64.3997 181.671 62.5997 181.671C63.3997 177.471 64.4997 173.171 59.5997 171.671C60.6997 167.671 60.1997 164.971 55.5997 165.671C54.2997 162.371 53.0997 160.671 49.5997 159.671ZM94.5997 163.671C97.8997 174.071 107.3 173.771 115.6 178.671C115.3 169.771 102 166.471 94.5997 163.671Z" fill="#000000" fill-rule="nonzero" opacity="1" stroke="none" vectornator:layerName="path"/>
<path d="M199.3 163.971C198.8 164.471 199.9 164.371 199.9 164.371C200.4 163.871 199.3 163.971 199.3 163.971Z" fill="#f0f1f1" fill-rule="nonzero" opacity="1" stroke="none" vectornator:layerName="path"/>
<path d="M304.6 163.671C305.8 165.571 306.5 165.871 308.6 166.671C307.4 164.671 306.9 164.371 304.6 163.671Z" fill="#fde78d" fill-rule="nonzero" opacity="1" stroke="none" vectornator:layerName="path"/>
<path d="M42.5997 173.671C40.6997 174.871 40.3997 175.571 39.5997 177.671C41.5997 179.571 42.5997 180.171 41.5997 182.671C42.9997 185.171 43.7997 185.871 46.5997 186.671C44.8997 191.171 45.3997 193.271 49.5997 195.671L46.5997 200.671L46.5997 201.671C48.5997 202.971 50.3997 203.871 52.5997 204.671C51.6997 208.971 52.1997 211.371 56.5997 212.671C55.9997 217.771 57.8997 223.171 61.5997 226.671C66.2997 218.971 61.7997 214.771 58.4997 207.671C54.1997 198.471 44.4997 178.571 46.5997 168.671C45.3997 167.471 45.2997 167.271 44.5997 165.671C39.2997 166.571 40.4997 169.771 42.5997 173.671Z" fill="#fde78d" fill-rule="nonzero" opacity="1" stroke="none" vectornator:layerName="path"/>
<path d="M92.5997 166.671L93.5997 167.671L92.5997 166.671Z" fill="#f0f1f1" fill-rule="nonzero" opacity="1" stroke="none" vectornator:layerName="path"/>
<path d="M335.6 169.671L335.6 170.671C338.3 170.271 339.2 169.971 340.6 167.671C338.7 168.171 337.3 168.771 335.6 169.671Z" fill="#fde78d" fill-rule="nonzero" opacity="1" stroke="none" vectornator:layerName="path"/>
<path d="M90.5997 169.671C85.3997 181.371 78.5997 189.271 78.5997 202.671C91.2997 196.171 100.5 186.871 115.6 185.671C114.8 175.071 100.9 176.471 94.5997 169.671L93.5997 169.671C92.1997 175.671 90.8997 181.471 91.5997 187.671C86.6997 181.671 91.8997 176.071 90.5997 169.671Z" fill="#000000" fill-rule="nonzero" opacity="1" stroke="none" vectornator:layerName="path"/>
<path d="M296.6 170.671L295.6 171.671L295.6 172.671L295.6 173.671C298 173.171 298.1 173.071 298.6 170.671L296.6 170.671Z" fill="#fde78d" fill-rule="nonzero" opacity="1" stroke="none" vectornator:layerName="path"/>
<path d="M81.2997 171.971C80.7997 172.471 81.8997 172.371 81.8997 172.371C82.3997 171.871 81.2997 171.971 81.2997 171.971Z" fill="#dddddd" fill-rule="nonzero" opacity="1" stroke="none" vectornator:layerName="path"/>
<path d="M311.6 179.671C313.5 180.971 312.7 180.971 314.6 179.671C316 181.571 317.5 182.371 319.6 183.471C338.5 192.771 328.7 161.571 314.8 173.971C313 175.571 312.3 177.471 311.6 179.671ZM80.5997 172.671C74.8997 184.771 68.7997 193.071 74.5997 206.671L75.5997 206.671C76.9997 201.871 76.0997 196.871 77.3997 191.971C79.1997 184.971 82.5997 180.171 82.5997 172.671L80.5997 172.671Z" fill="#000000" fill-rule="nonzero" opacity="1" stroke="none" vectornator:layerName="path"/>
<path d="M63.5997 173.671L63.5997 177.671L64.5997 177.671C64.3997 175.971 64.2997 175.171 63.5997 173.671Z" fill="#fdefaf" fill-rule="nonzero" opacity="1" stroke="none" vectornator:layerName="path"/>
<path d="M89.5997 174.671C89.1997 179.171 87.5997 184.471 91.5997 187.671C91.2997 183.071 92.2997 178.571 89.5997 174.671Z" fill="#fde78d" fill-rule="nonzero" opacity="1" stroke="none" vectornator:layerName="path"/>
<path d="M90.8997 175.371C90.8997 175.371 90.7997 176.471 91.2997 175.971C91.2997 175.971 91.3997 174.871 90.8997 175.371Z" fill="#fdf1bc" fill-rule="nonzero" opacity="1" stroke="none" vectornator:layerName="path"/>
<path d="M323.6 174.671C324.3 177.571 325.2 180.071 326.6 182.671L327.6 182.671C328.4 178.571 327.2 176.571 323.6 174.671ZM337.6 176.671C338 179.371 338.3 180.271 340.6 181.671C340.1 179.171 339.7 178.171 337.6 176.671Z" fill="#fde78d" fill-rule="nonzero" opacity="1" stroke="none" vectornator:layerName="path"/>
<path d="M331.6 178.671C331.9 180.771 332 181.371 333.6 182.671C333 180.871 332.7 180.171 331.6 178.671Z" fill="#fdefaf" fill-rule="nonzero" opacity="1" stroke="none" vectornator:layerName="path"/>
<path d="M290.6 179.671C289.2 186.871 286 197.071 282.8 203.671C281.2 206.971 277.8 209.071 276.9 212.671C273.8 224.971 274.1 238.371 270.6 250.671C263.2 276.471 242.6 296.471 218.6 307.671L218.6 308.671C236.7 308.671 254.6 305.471 272.6 304.671C272.6 294.271 272 282.871 269.6 272.671C281.8 266.471 298.9 265.671 312.6 264.271C317.8 263.671 321.6 259.171 326.3 263.971C332.7 270.771 329.6 289.071 329.6 297.671C339.3 296.371 349 294.471 358.6 292.671C358.6 250.371 362.2 200.471 313.6 182.771C306.1 179.971 298.5 179.671 290.6 179.671Z" fill="#000000" fill-rule="nonzero" opacity="1" stroke="none" vectornator:layerName="path"/>
<path d="M189.6 186.671L189.6 188.671C198.7 189.271 208 188.771 214.6 181.671C206.3 181.871 198.6 186.671 189.6 186.671Z" fill="#fde78d" fill-rule="nonzero" opacity="1" stroke="none" vectornator:layerName="path"/>
<path d="M77.5997 293.671C78.5997 286.071 75.3997 265.171 85.5997 263.171C89.5997 262.471 92.6997 265.671 96.5997 265.671C102.7 265.671 106.4 262.671 111.6 267.671C117.7 266.571 137.2 267.171 140.6 272.871C145.2 280.671 140.6 298.671 140.6 307.671C159.9 307.671 179.2 309.671 198.6 309.671L198.6 308.671C189.2 304.271 179.8 300.971 171.5 294.571C145.2 274.471 139 245.471 131.6 215.671C116.9 220.271 115.6 196.871 115.6 187.671C81.4997 190.471 59.8997 224.571 55.5997 255.671C54.6997 262.471 51.7997 277.171 55.5997 283.271C59.0997 288.771 71.6997 291.671 77.5997 293.671Z" fill="#000000" fill-rule="nonzero" opacity="1" stroke="none"/>
<path d="M22.5997 189.671C21.1997 197.871 26.5997 211.871 33.5997 216.671C30.8997 233.371 36.4997 258.171 52.5997 266.671C52.5997 253.171 57.5997 241.571 60.5997 228.671C57.6997 226.271 56.8997 222.971 54.2997 220.471C49.7997 216.271 44.0997 214.771 40.3997 209.471C35.3997 202.371 32.6997 190.471 22.5997 189.671Z" fill="#000000" fill-rule="nonzero" opacity="1" stroke="none" vectornator:layerName="Кривая"/>
<path d="M70.5997 192.671L70.5997 197.671L71.5997 197.671C71.4997 195.671 71.3997 194.471 70.5997 192.671ZM77.8997 194.371C77.8997 194.371 77.7997 195.471 78.2997 194.971C78.2997 194.971 78.3997 193.871 77.8997 194.371Z" fill="#fdf3c0" fill-rule="nonzero" opacity="1" stroke="none" vectornator:layerName="path"/>
<path d="M373.6 196.671L373.6 197.671L377.6 197.671C376.1 196.971 375.3 196.871 373.6 196.671Z" fill="#fdf1bc" fill-rule="nonzero" opacity="1" stroke="none" vectornator:layerName="path"/>
<path d="M358.6 197.671L358.6 198.671L362.6 198.671C361.1 197.971 360.3 197.871 358.6 197.671Z" fill="#fdefaf" fill-rule="nonzero" opacity="1" stroke="none" vectornator:layerName="path"/>
<path d="M349.6 210.671L349.6 211.671C351.6 214.971 352.5 219.271 355.6 221.671C355.9 230.171 372.3 242.971 379.6 246.671C384.6 231.171 392.3 213.871 393.6 197.671C383.8 197.671 367.5 195.271 358.7 199.971C354.8 202.071 352.3 207.271 349.6 210.671Z" fill="#000000" fill-rule="nonzero" opacity="1" stroke="none" vectornator:layerName="path"/>
<path d="M369.6 207.671C369.6 209.971 369.7 210.371 371.6 211.671L371.6 207.671L369.6 207.671ZM379.6 208.671L379.6 212.671L380.6 212.671L382.6 208.671L379.6 208.671ZM376.6 210.671C376.1 213.471 376.3 213.971 378.6 215.671L378.6 210.671L376.6 210.671ZM364.6 211.671C364.6 214.071 364.7 214.371 366.6 215.671C366.1 213.671 365.9 213.171 364.6 211.671Z" fill="#fde78d" fill-rule="nonzero" opacity="1" stroke="none" vectornator:layerName="path"/>
<path d="M369.6 212.671L369.6 218.671L370.6 218.671C370.6 216.371 370.5 214.771 369.6 212.671Z" fill="#fdf3c0" fill-rule="nonzero" opacity="1" stroke="none" vectornator:layerName="path"/>
<path d="M368.6 213.671C368.7 216.271 368.6 217.971 370.6 219.671C370 217.571 369.6 215.571 368.6 213.671ZM371.6 213.671C372.5 216.271 373.3 217.171 375.6 218.671L374.6 213.671L371.6 213.671Z" fill="#fde78d" fill-rule="nonzero" opacity="1" stroke="none" vectornator:layerName="path"/>
<path d="M6.59971 229.671C9.09971 229.271 11.2997 228.671 13.5997 227.471C15.9997 226.171 25.3997 220.271 20.9997 216.671C13.5997 210.771 6.69971 224.471 6.59971 229.671Z" fill="#ffffff" fill-rule="nonzero" opacity="1" stroke="none" vectornator:layerName="path"/>
<path d="M363.6 216.671C364.6 219.171 365.1 219.771 367.6 220.671C366.4 218.471 365.8 217.871 363.6 216.671ZM359.6 217.671C359.3 220.371 359.4 221.071 361.6 222.671C361.2 220.571 360.9 219.371 359.6 217.671Z" fill="#fde78d" fill-rule="nonzero" opacity="1" stroke="none" vectornator:layerName="path"/>
<path d="M375.6 217.671L376.6 218.671L375.6 217.671Z" fill="#d3d3d3" fill-rule="nonzero" opacity="1" stroke="none" vectornator:layerName="path"/>
<path d="M24.5997 219.671C20.2997 225.771 15.0997 229.271 8.59971 232.671C10.5997 235.671 12.3997 237.971 15.5997 239.671C18.1997 233.471 23.8997 228.071 30.5997 226.671C28.9997 223.771 27.1997 221.771 24.5997 219.671Z" fill="#ffffff" fill-rule="nonzero" opacity="1" stroke="none" vectornator:layerName="path"/>
<path d="M375.6 219.671C376.2 222.071 376.6 223.171 378.6 224.671C378.2 221.971 377.9 221.071 375.6 219.671ZM366.6 224.671C367.7 226.771 368.5 227.571 370.6 228.671C371.2 225.171 371.2 223.071 373.6 223.671C372.5 218.471 369.4 223.471 366.6 224.671Z" fill="#fde78d" fill-rule="nonzero" opacity="1" stroke="none" vectornator:layerName="path"/>
<path d="M373.6 225.671C373.6 227.471 373.5 227.271 374.6 228.671C374.3 227.171 374.3 226.871 373.6 225.671Z" fill="#fdefaf" fill-rule="nonzero" opacity="1" stroke="none" vectornator:layerName="path"/>
<path d="M374.6 226.671L373.6 229.671C375.4 228.671 375.6 228.471 374.6 226.671Z" fill="#fde78d" fill-rule="nonzero" opacity="1" stroke="none" vectornator:layerName="path"/>
<path d="M17.5997 240.671C23.2997 238.171 28.4997 234.771 30.5997 228.671C24.3997 229.871 19.2997 234.571 17.5997 240.671ZM357.6 230.671C358.8 245.571 360.6 259.671 360.6 274.671C373.3 270.371 385.6 261.071 396.6 253.671C393 249.371 387.7 245.971 382.6 243.671L380.6 250.671C372 245.271 365.1 237.471 357.6 230.671ZM30.5997 233.671C27.1997 237.871 22.4997 240.571 17.5997 242.671C22.1997 248.071 27.0997 247.471 33.5997 246.671C33.1997 242.271 32.4997 237.571 30.5997 233.671ZM140.6 233.671C140.6 266.071 168.5 301.571 201.6 306.671L201.6 305.671C195.3 301.271 190.5 293.971 183.6 290.671C182.7 284.571 176.7 278.871 173.3 273.671C168.4 266.271 166.9 257.371 162.4 249.971C158.8 243.971 154.3 241.171 153.6 233.671C148.6 235.271 145.6 235.371 140.6 233.671Z" fill="#000000" fill-rule="evenodd" opacity="1" stroke="none" vectornator:layerName="path"/>
<path d="M38.5997 236.671C38.3997 240.771 39.6997 243.771 42.5997 246.671C42.5997 242.671 41.1997 239.571 38.5997 236.671Z" fill="#fde78d" fill-rule="nonzero" opacity="1" stroke="none" vectornator:layerName="path"/>
<path d="M4.59971 242.671C2.19971 244.371 1.89971 245.771 1.59971 248.671C4.59971 247.871 12.0997 243.571 10.0997 239.271C8.29971 235.371 4.89971 241.071 4.59971 242.671Z" fill="#ffffff" fill-rule="nonzero" opacity="1" stroke="none"/>
<path d="M266.6 237.671C262 241.271 257.649 242.618 252.349 240.918C245.649 255.918 237.3 267.071 228 280.671C222.7 288.571 214.7 297.871 213.6 307.671C241.7 295.971 268.6 269.771 268.6 237.671L266.6 237.671Z" fill="#000000" fill-rule="nonzero" opacity="1" stroke="none"/>
<path d="M12.5997 241.671C10.1997 245.071 7.79971 247.971 4.59971 250.671C6.09971 251.771 6.79971 252.071 8.59971 252.671C11.0997 249.271 15.0997 245.771 12.5997 241.671Z" fill="#ffffff" fill-rule="nonzero" opacity="1" stroke="none"/>
<path d="M180.6 242.671C176.9 248.371 173.4 250.571 166.6 250.671C167.4 267.271 181 284.171 192.4 295.271C196.9 299.571 200.4 304.171 206.6 305.671C206.6 290.271 204.7 274.971 204.6 259.671C191.1 262.771 187.2 251.371 180.6 242.671Z" fill="#ffffff" fill-rule="nonzero" opacity="1" stroke="none"/>
<path d="M357.9 244.371C357.9 244.371 357.8 245.471 358.3 244.971C358.3 244.971 358.4 243.871 357.9 244.371Z" fill="#fdf1bc" fill-rule="nonzero" opacity="1" stroke="none" vectornator:layerName="path"/>
<path d="M16.5997 245.671C13.7997 248.571 11.6997 250.871 10.5997 254.671C14.1997 252.771 18.8997 249.971 16.5997 245.671Z" fill="#000000" fill-rule="nonzero" opacity="1" stroke="none" vectornator:layerName="path"/>
<path d="M368.3 245.971C367.8 246.471 368.9 246.371 368.9 246.371C369.4 245.871 368.3 245.971 368.3 245.971Z" fill="#fff5cb" fill-rule="nonzero" opacity="1" stroke="none" vectornator:layerName="path"/>
<path d="M368.6 247.671L371.6 247.671L370.6 245.671C369 246.171 369.1 246.071 368.6 247.671ZM362.6 246.671C363.3 248.971 363.6 249.471 365.6 250.671L364.6 246.671L362.6 246.671Z" fill="#fde78d" fill-rule="nonzero" opacity="1" stroke="none" vectornator:layerName="path"/>
<path d="M28.5997 249.671C28.3997 259.371 20.3997 260.471 12.5997 256.671C17.7997 251.071 21.0997 249.371 28.5997 249.671ZM34.5997 248.671C34.0997 251.171 33.6997 252.171 31.5997 253.671L31.5997 248.671L34.5997 248.671Z" fill="#000000" fill-rule="evenodd" opacity="1" stroke="none" vectornator:layerName="path"/>
<path d="M367.6 251.671C369.7 250.771 369.7 250.771 370.6 248.671C368.2 249.171 368.1 249.271 367.6 251.671Z" fill="#fdeda3" fill-rule="nonzero" opacity="1" stroke="none" vectornator:layerName="path"/>
<path d="M243.6 251.671C234.5 271.071 218.8 286.671 210.6 306.671L209.6 306.671C209 292.971 204 274.171 207.9 260.871C209.1 256.771 214.6 253.871 216.6 249.671C227.8 254.571 231.8 257.171 243.6 251.671ZM35.5997 260.671C37.4997 261.171 38.8997 261.771 40.5997 262.671L39.5997 267.671C34.4997 263.271 33.6997 257.671 36.5997 251.671C38.7997 254.871 36.4997 257.171 35.5997 260.671Z" fill="#ffffff" fill-rule="evenodd" opacity="1" stroke="none" vectornator:layerName="Pppp"/>
<path d="M369.6 257.671C367.5 256.171 367.1 255.171 366.6 252.671C368.4 254.371 368.9 255.271 369.6 257.671ZM374.6 253.671L370.6 254.671C372 252.971 372.6 252.871 374.6 253.671Z" fill="#fde78d" fill-rule="evenodd" opacity="1" stroke="none" vectornator:layerName="path"/>
<path d="M30.5997 254.671L30.5997 256.671L32.5997 256.671L32.5997 254.671L30.5997 254.671Z" fill="#000000" fill-rule="nonzero" opacity="1" stroke="none" vectornator:layerName="path"/>
<path d="M362.6 254.671C363.7 256.671 364.5 256.671 365.6 254.671L362.6 254.671Z" fill="#fde78d" fill-rule="nonzero" opacity="1" stroke="none" vectornator:layerName="path"/>
<path d="M369.6 255.671L370.6 256.671L369.6 255.671Z" fill="#c7c7c7" fill-rule="nonzero" opacity="1" stroke="none" vectornator:layerName="path"/>
<path d="M372.6 255.671L372.6 257.671L375.6 257.671L375.6 255.671L372.6 255.671Z" fill="#fff5cb" fill-rule="nonzero" opacity="1" stroke="none" vectornator:layerName="path"/>
<path d="M39.5997 256.671L40.5997 261.671L41.5997 261.671C41.2997 259.371 40.9997 258.471 39.5997 256.671Z" fill="#000000" fill-rule="nonzero" opacity="1" stroke="none" vectornator:layerName="path"/>
<path d="M38.8997 258.371C38.8997 258.371 38.7997 259.471 39.2997 258.971C39.2997 258.971 39.3997 257.871 38.8997 258.371Z" fill="#000000" fill-rule="nonzero" opacity="1" stroke="none" vectornator:layerName="path"/>
<path d="M368.6 258.671C369.3 260.271 369.4 260.471 370.6 261.671L371.6 260.671L370.6 258.671L368.6 258.671ZM212.9 260.871C209.6 262.471 211.9 267.971 215.3 266.371C218.6 264.871 216.3 259.171 212.9 260.871Z" fill="#fde78d" fill-rule="evenodd" opacity="1" stroke="none" vectornator:layerName="path"/>
<path d="M42.5997 261.671L42.5997 265.671C45.9997 265.671 45.4997 269.571 49.5997 268.671C47.8997 265.371 45.8997 263.271 42.5997 261.671ZM32.5997 263.671L32.5997 266.671L33.5997 266.671C33.2997 265.171 33.2997 264.871 32.5997 263.671Z" fill="#000000" fill-rule="nonzero" opacity="1" stroke="none" vectornator:layerName="path"/>
<path d="M40.8997 264.371C40.8997 264.371 40.7997 265.471 41.2997 264.971C41.2997 264.971 41.3997 263.871 40.8997 264.371Z" fill="#000000" fill-rule="nonzero" opacity="1" stroke="none" vectornator:layerName="path"/>
<path d="M324.6 264.671C322.1 270.671 316.8 271.971 313.6 265.671C317.6 264.271 320.5 263.471 324.6 264.671ZM89.5997 266.671L91.5997 265.671L93.5997 269.671C88.3997 271.871 84.5997 271.871 81.5997 266.671C84.4997 265.571 87.2997 264.271 89.5997 266.671ZM45.5997 274.671C42.3997 271.971 41.6997 269.771 41.5997 265.671C43.6997 268.371 44.8997 271.271 45.5997 274.671ZM109.6 267.671C107.2 274.471 99.8997 275.271 96.5997 268.671C101.2 266.771 104.8 266.771 109.6 267.671ZM34.5997 269.671L32.5997 269.671L32.5997 267.671C34.1997 268.171 34.0997 268.071 34.5997 269.671Z" fill="#000000" fill-rule="evenodd" opacity="1" stroke="none" vectornator:layerName="path"/>
<path d="M205.6 267.671L205.6 273.671L206.6 273.671C206.6 271.371 206.5 269.771 205.6 267.671Z" fill="#fde78d" fill-rule="nonzero" opacity="1" stroke="none" vectornator:layerName="path"/>
<path d="M50.5997 268.671C49.4997 270.871 49.3997 271.271 49.5997 273.671L50.5997 273.671C51.1997 271.471 51.3997 270.671 50.5997 268.671ZM112.6 269.671C116.2 282.771 130.4 268.671 117.6 268.771C115.9 268.871 114.3 269.271 112.6 269.671ZM285.6 273.671C290.7 276.071 294.6 275.771 297.6 270.671C292.6 268.271 288.3 268.471 285.6 273.671Z" fill="#000000" fill-rule="nonzero" opacity="1" stroke="none" vectornator:layerName="path"/>
<path d="M46.5997 269.671L47.5997 270.671L46.5997 269.671Z" fill="#e9e9e9" fill-rule="nonzero" opacity="1" stroke="none" vectornator:layerName="path"/>
<path d="M324.6 269.671C320.7 272.171 318.1 272.171 313.6 271.671C314.2 274.071 314.5 276.271 314.6 278.671C320.3 278.671 327.6 277.071 324.6 269.671Z" fill="#000000" fill-rule="nonzero" opacity="1" stroke="none" vectornator:layerName="path"/>
<path d="M32.5997 270.671L33.5997 271.671L32.5997 270.671Z" fill="#fbfafa" fill-rule="nonzero" opacity="1" stroke="none" vectornator:layerName="path"/>
<path d="M36.5997 270.671L34.5997 274.671L40.5997 277.671C40.0997 275.271 39.4997 272.971 38.5997 270.671L36.5997 270.671ZM127.6 272.671C131.3 276.471 135 275.571 139.6 273.671C135.6 270.271 132.2 270.771 127.6 272.671ZM81.5997 271.671C81.0997 280.871 92.2997 282.471 92.5997 272.671C88.4997 273.371 85.5997 272.871 81.5997 271.671ZM95.5997 272.671C93.0997 283.871 108.2 286.371 108.6 274.671C103.4 275.671 100.3 275.271 95.5997 272.671Z" fill="#000000" fill-rule="evenodd" opacity="1" stroke="none" vectornator:layerName="path"/>
<path d="M213.6 273.871C210.4 274.371 210 280.071 213.6 279.871C217.6 279.771 217.7 273.271 213.6 273.871Z" fill="#fde78d" fill-rule="nonzero" opacity="1" stroke="none" vectornator:layerName="path"/>
<path d="M300.6 273.671C302.4 282.671 312.4 283.971 311.6 273.671C307.4 274.771 304.7 275.071 300.6 273.671ZM46.5997 275.671C48.3997 276.971 49.4997 277.271 51.5997 277.671C50.8997 274.471 49.4997 274.671 46.5997 275.671Z" fill="#000000" fill-rule="nonzero" opacity="1" stroke="none" vectornator:layerName="path"/>
<path d="M111.6 274.671L112.6 275.671L111.6 274.671Z" fill="#f5f7f7" fill-rule="nonzero" opacity="1" stroke="none" vectornator:layerName="path"/>
<path d="M45.5997 279.671C42.8997 279.071 42.7997 278.371 42.5997 275.671C44.1997 277.071 44.6997 277.771 45.5997 279.671ZM124.6 276.671C124.3 286.571 113.2 286.471 110.6 277.671C112.6 278.171 112.1 278.571 112.6 275.671C117 277.671 119.9 277.671 124.6 276.671ZM139.6 276.671C139.6 290.171 126.7 288.171 126.6 275.671C131.4 277.871 134.5 277.771 139.6 276.671ZM298.6 275.671C297.4 286.271 285.2 286.871 284.6 275.671C290.1 277.971 293.1 277.571 298.6 275.671ZM372.6 279.671C370.2 285.371 367 290.371 360.6 291.671L360.6 283.671C364.6 284.271 366.8 283.671 369.6 280.671L360.6 282.671C361.3 274.171 367.3 275.871 372.6 279.671ZM271.6 277.671C275.5 278.371 278 278.571 281.6 276.671C285.6 286.171 273.4 289.271 271.6 277.671Z" fill="#000000" fill-rule="evenodd" opacity="1" stroke="none" vectornator:layerName="path"/>
<path d="M45.5997 279.671L46.5997 280.671L45.5997 279.671Z" fill="#f0f1f1" fill-rule="nonzero" opacity="1" stroke="none" vectornator:layerName="path"/>
<path d="M46.5997 280.671L46.5997 281.671L51.5997 282.671C50.0997 280.871 48.9997 280.871 46.5997 280.671ZM80.5997 284.671C80.5997 293.471 82.4997 296.371 91.5997 297.671L91.5997 285.671C87.3997 286.671 84.5997 286.071 80.5997 284.671Z" fill="#000000" fill-rule="nonzero" opacity="1" stroke="none" vectornator:layerName="path"/>
<path d="M211.6 284.671C209.3 296.871 223.4 287.171 211.6 284.671Z" fill="#fde78d" fill-rule="nonzero" opacity="1" stroke="none" vectornator:layerName="path"/>
<path d="M315.6 286.671C315.6 291.071 315.8 295.271 316.6 299.671C326.8 297.171 326.6 294.871 326.6 284.671C322.8 285.671 319.6 287.071 315.6 286.671ZM94.5997 287.671C94.0997 298.271 95.4997 300.171 106.6 301.671L107.6 288.671C102.8 289.771 99.1997 289.371 94.5997 287.671Z" fill="#000000" fill-rule="nonzero" opacity="1" stroke="none" vectornator:layerName="path"/>
<path d="M108.9 290.371C108.9 290.371 108.8 291.471 109.3 290.971C109.3 290.971 109.4 289.871 108.9 290.371Z" fill="#fdf1bc" fill-rule="nonzero" opacity="1" stroke="none" vectornator:layerName="path"/>
<path d="M109.6 289.671L108.6 302.671L122.6 304.671L123.6 290.671C118.5 291.871 114.5 291.471 109.6 289.671ZM301.6 289.671L301.6 301.671L313.6 299.671C313.6 296.171 313.6 293.071 312.6 289.671C308.5 290.671 305.7 290.871 301.6 289.671ZM285.6 291.671L285.6 303.671C294.3 301.571 302 302.071 298.6 290.671C293.9 292.371 290.5 292.571 285.6 291.671ZM125.6 291.671L125.6 305.671L137.6 306.671C138.4 302.271 138.6 298.071 138.6 293.671C133.6 294.071 130.2 293.771 125.6 291.671Z" fill="#000000" fill-rule="nonzero" opacity="1" stroke="none" vectornator:layerName="path"/>
<path d="M299.6 291.671L299.6 294.671L300.6 294.671C300.3 293.171 300.3 292.871 299.6 291.671Z" fill="#fdf1bc" fill-rule="nonzero" opacity="1" stroke="none" vectornator:layerName="path"/>
<path d="M273.6 293.671L273.6 303.671L283.6 303.671L283.6 292.671C280 293.571 277.3 294.371 273.6 293.671Z" fill="#000000" fill-rule="nonzero" opacity="1" stroke="none" vectornator:layerName="path"/>
<path d="M271.6 294.671L271.6 298.671L272.6 298.671C272.4 296.971 272.3 296.171 271.6 294.671Z" fill="#fdeeac" fill-rule="nonzero" opacity="1" stroke="none" vectornator:layerName="path"/>
<path d="M313.6 294.671L313.6 298.671L314.6 298.671C314.4 296.971 314.3 296.171 313.6 294.671Z" fill="#fdf0b6" fill-rule="nonzero" opacity="1" stroke="none" vectornator:layerName="path"/>
<path d="M283.6 298.671L283.6 304.671L284.6 304.671C284.6 302.371 284.5 300.771 283.6 298.671Z" fill="#fff5cb" fill-rule="nonzero" opacity="1" stroke="none" vectornator:layerName="path"/>
<path d="M170.6 309.671L170.6 310.671L174.6 310.671C173.1 309.971 172.3 309.871 170.6 309.671Z" fill="#fdf3c0" fill-rule="nonzero" opacity="1" stroke="none" vectornator:layerName="path"/>
<path d="M176.6 309.671L176.6 310.671L179.6 310.671C178.4 309.971 178.1 309.971 176.6 309.671ZM191.6 309.671L191.6 310.671L198.6 310.671C196.3 309.671 194.1 309.671 191.6 309.671Z" fill="#fff5cb" fill-rule="nonzero" opacity="1" stroke="none" vectornator:layerName="path"/>
</g>
<path d="M161.295 126.934L157.724 127.71C157.724 127.71 155.262 128.218 154.042 128.795C152.823 129.373 150.384 131.17 149.999 133.096C149.999 133.096 148.972 132.582 149.357 135.856C149.549 137.489 151.86 140.221 151.86 140.221L154.941 142.274L157.765 142.852L160.14 142.981L162.515 143.045L169.319 140.67" fill="#000000" fill-rule="nonzero" opacity="1" stroke="#000000" stroke-linecap="butt" stroke-linejoin="round" stroke-width="0.719047"/>
<path d="M153.647 134.84L153.647 134.84L153.647 134.84C153.647 134.84 153.619 134.932 153.607 134.99C153.591 135.066 153.567 135.185 153.567 135.26C153.567 135.314 153.587 135.4 153.587 135.4L153.587 135.4L153.587 135.4C153.587 135.4 153.623 135.299 153.647 135.23C153.684 135.121 153.754 134.934 153.787 134.81C153.812 134.714 153.837 134.55 153.837 134.55L153.837 134.55L153.837 134.55L153.817 134.6L153.817 134.6L153.817 134.6L153.757 134.85L153.757 134.85L153.757 134.85L153.757 134.85L153.747 134.82" fill="#ffffff" fill-rule="nonzero" opacity="1" stroke="#ffffff" stroke-linecap="round" stroke-linejoin="round" stroke-width="2" vectornator:layerName="path"/>
<path d="M153.364 135.393L153.364 135.393C153.364 135.393 153.352 135.387 153.344 135.383C153.331 135.376 153.308 135.37 153.294 135.353C153.272 135.327 153.256 135.282 153.244 135.223C153.222 135.109 153.238 134.85 153.234 134.703C153.231 134.595 153.215 134.501 153.224 134.423C153.231 134.365 153.264 134.273 153.264 134.273L153.264 134.273L153.264 134.273C153.264 134.273 153.263 134.365 153.254 134.423C153.242 134.504 153.199 134.635 153.184 134.713C153.174 134.765 153.164 134.843 153.164 134.843L153.164 134.843L153.164 134.843C153.164 134.843 153.142 134.817 153.134 134.793C153.118 134.744 153.114 134.553 153.114 134.553L153.114 134.553L153.114 134.553C153.114 134.553 153.078 134.61 153.054 134.643C153.022 134.687 152.934 134.793 152.934 134.793L152.934 134.793L152.934 134.793C152.934 134.793 152.933 134.643 152.934 134.563C152.936 134.474 152.933 134.377 152.944 134.283C152.956 134.187 153.004 133.993 153.004 133.993L153.004 133.993L153.004 133.993C153.004 133.993 152.992 133.996 152.984 134.003C152.959 134.026 152.905 134.124 152.874 134.193C152.84 134.269 152.794 134.443 152.794 134.443L152.794 134.443L152.794 134.443L152.814 134.393L152.814 134.393L152.814 134.393C152.814 134.393 152.742 134.529 152.714 134.603C152.685 134.682 152.644 134.853 152.644 134.853L152.644 134.853L152.644 134.853C152.644 134.853 152.644 134.843 152.644 134.833C152.645 134.794 152.643 134.641 152.654 134.563C152.663 134.502 152.694 134.403 152.694 134.403L152.694 134.403L152.694 134.403L152.694 134.403C152.694 134.403 152.653 134.461 152.634 134.493C152.613 134.527 152.574 134.603 152.574 134.603L152.574 134.603L152.574 134.603C152.574 134.603 152.58 134.574 152.584 134.553C152.59 134.518 152.604 134.413 152.604 134.413L152.604 134.413L152.604 134.413L152.604 134.413C152.604 134.413 152.595 134.442 152.584 134.463C152.563 134.502 152.504 134.562 152.474 134.623C152.439 134.693 152.417 134.781 152.394 134.863C152.37 134.947 152.339 135.051 152.334 135.123C152.33 135.173 152.334 135.208 152.344 135.253C152.355 135.304 152.404 135.413 152.404 135.413L152.404 135.413L152.404 135.413C152.404 135.413 152.424 135.306 152.434 135.243C152.447 135.163 152.474 134.973 152.474 134.973L152.474 134.973L152.474 134.973L152.474 134.973L152.474 134.973C152.474 134.973 152.399 135.175 152.374 135.273C152.35 135.365 152.337 135.469 152.324 135.543C152.315 135.594 152.31 135.621 152.304 135.673C152.296 135.749 152.279 135.874 152.284 135.953C152.288 136.011 152.3 136.053 152.314 136.103C152.329 136.156 152.374 136.263 152.374 136.263L152.374 136.263L152.374 136.263C152.374 136.263 152.419 136.129 152.424 136.073C152.428 136.029 152.422 136.001 152.414 135.953C152.402 135.877 152.359 135.743 152.344 135.663C152.334 135.608 152.324 135.523 152.324 135.523L152.324 135.523L152.324 135.523L152.324 135.523C152.324 135.523 152.325 135.533 152.324 135.543C152.322 135.582 152.293 135.722 152.294 135.813C152.295 135.906 152.316 136.013 152.334 136.093C152.348 136.154 152.384 136.253 152.384 136.253L152.384 136.253L152.384 136.253L152.384 136.253C152.384 136.253 152.356 136.196 152.334 136.163C152.304 136.118 152.248 136.071 152.214 136.013C152.176 135.947 152.149 135.863 152.124 135.783C152.098 135.7 152.069 135.595 152.064 135.523C152.06 135.473 152.071 135.437 152.074 135.393C152.077 135.347 152.084 135.253 152.084 135.253L152.084 135.253L152.084 135.253L152.084 135.253L152.084 135.253C152.084 135.253 152.061 135.288 152.044 135.313C152.017 135.354 151.966 135.413 151.934 135.473C151.898 135.541 151.859 135.623 151.844 135.703C151.829 135.783 151.837 135.881 151.844 135.953C151.85 136.01 151.858 136.053 151.874 136.103C151.891 136.156 151.916 136.211 151.944 136.263C151.973 136.317 152.02 136.372 152.044 136.423C152.064 136.465 152.084 136.543 152.084 136.543L152.084 136.543L152.084 136.543L152.084 136.543L152.084 136.543L152.084 136.543C152.084 136.543 152.003 136.309 151.974 136.203C151.949 136.111 151.93 136.04 151.914 135.943C151.894 135.822 151.871 135.657 151.874 135.533C151.876 135.431 151.895 135.356 151.914 135.253C151.938 135.125 151.977 134.951 152.014 134.823C152.045 134.716 152.092 134.611 152.114 134.533C152.129 134.482 152.128 134.448 152.144 134.403C152.163 134.351 152.196 134.296 152.224 134.243C152.252 134.189 152.314 134.083 152.314 134.083L152.314 134.083L152.314 134.083L152.344 134.423" fill="#ffffff" fill-rule="nonzero" opacity="1" stroke="#ffffff" stroke-linecap="round" stroke-linejoin="round" stroke-width="2" vectornator:layerName="path"/>
<path d="M151.973 135.534L151.973 135.534C151.973 135.534 151.936 135.496 151.923 135.464C151.903 135.414 151.894 135.329 151.893 135.254C151.891 135.167 151.916 135.051 151.923 134.974C151.928 134.919 151.924 134.881 151.933 134.834C151.943 134.784 151.963 134.735 151.983 134.684C152.005 134.628 152.04 134.566 152.063 134.514C152.082 134.471 152.093 134.442 152.113 134.394C152.144 134.32 152.194 134.195 152.233 134.114C152.264 134.05 152.289 133.998 152.323 133.944C152.356 133.891 152.395 133.845 152.433 133.794C152.472 133.741 152.523 133.682 152.553 133.634C152.575 133.598 152.582 133.57 152.603 133.534C152.631 133.486 152.667 133.428 152.713 133.374C152.769 133.308 152.86 133.235 152.923 133.174C152.975 133.124 153.016 133.079 153.063 133.034C153.109 132.989 153.157 132.949 153.203 132.904C153.25 132.859 153.296 132.811 153.343 132.764C153.39 132.717 153.428 132.672 153.483 132.624C153.551 132.565 153.641 132.49 153.723 132.444C153.798 132.402 153.887 132.377 153.953 132.354C154.002 132.337 154.05 132.329 154.083 132.314C154.104 132.305 154.11 132.295 154.133 132.284C154.181 132.26 154.294 132.227 154.363 132.194C154.422 132.166 154.462 132.129 154.523 132.104C154.596 132.074 154.7 132.062 154.773 132.034C154.834 132.011 154.879 131.983 154.933 131.954C154.989 131.923 155.04 131.883 155.103 131.854C155.172 131.822 155.263 131.804 155.333 131.774C155.395 131.747 155.439 131.709 155.503 131.684C155.577 131.654 155.68 131.642 155.753 131.614C155.814 131.591 155.852 131.557 155.913 131.534C155.986 131.506 156.09 131.49 156.163 131.464C156.223 131.443 156.272 131.413 156.323 131.394C156.368 131.377 156.408 131.373 156.453 131.354C156.505 131.332 156.552 131.296 156.613 131.264C156.693 131.222 156.801 131.16 156.893 131.124C156.977 131.092 157.143 131.054 157.143 131.054" fill="#ffffff" fill-rule="nonzero" opacity="1" stroke="#ffffff" stroke-linecap="round" stroke-linejoin="round" stroke-width="2" vectornator:layerName="path"/>
<path d="M153.783 132.608L153.783 132.608C153.783 132.608 153.788 132.598 153.793 132.588C153.807 132.56 153.843 132.481 153.873 132.428C153.903 132.374 153.937 132.321 153.973 132.268C154.01 132.214 154.053 132.16 154.093 132.108C154.133 132.057 154.172 132.008 154.213 131.958C154.255 131.908 154.291 131.859 154.343 131.808C154.407 131.746 154.493 131.666 154.573 131.618C154.644 131.575 154.744 131.557 154.793 131.528C154.821 131.511 154.83 131.495 154.853 131.478C154.881 131.458 154.911 131.436 154.953 131.418C155.014 131.391 155.123 131.378 155.193 131.348C155.253 131.323 155.291 131.283 155.353 131.258C155.428 131.228 155.538 131.214 155.613 131.188C155.674 131.167 155.713 131.139 155.773 131.118C155.846 131.092 155.951 131.066 156.023 131.048C156.076 131.035 156.108 131.027 156.163 131.018C156.238 131.006 156.342 131.005 156.433 130.988C156.529 130.97 156.723 130.908 156.723 130.908L156.723 130.908L156.723 130.908C156.723 130.908 156.713 130.907 156.703 130.908C156.663 130.913 156.494 130.951 156.413 130.978C156.351 130.999 156.314 131.021 156.253 131.048C156.172 131.084 156.066 131.133 155.973 131.178C155.879 131.223 155.768 131.287 155.693 131.318C155.645 131.338 155.616 131.341 155.573 131.358C155.521 131.379 155.466 131.413 155.403 131.438C155.329 131.467 155.226 131.488 155.153 131.518C155.093 131.543 155.046 131.57 154.993 131.598C154.939 131.626 154.882 131.663 154.833 131.688C154.793 131.708 154.762 131.717 154.723 131.738C154.674 131.764 154.624 131.802 154.563 131.838C154.483 131.884 154.375 131.938 154.283 131.988C154.192 132.038 154.091 132.092 154.013 132.138C153.952 132.174 153.906 132.202 153.853 132.238C153.799 132.275 153.746 132.309 153.693 132.358C153.629 132.418 153.564 132.501 153.503 132.578C153.44 132.657 153.363 132.762 153.323 132.828C153.299 132.868 153.294 132.891 153.273 132.928C153.246 132.976 153.203 133.028 153.173 133.088C153.138 133.158 153.106 133.245 153.083 133.328C153.059 133.412 153.056 133.512 153.033 133.588C153.014 133.652 152.99 133.703 152.963 133.758C152.936 133.813 152.873 133.918 152.873 133.918L152.873 133.918L152.873 133.918L152.873 133.918C152.873 133.918 152.866 133.885 152.863 133.858C152.856 133.799 152.838 133.655 152.843 133.578C152.847 133.523 152.859 133.493 152.873 133.438C152.894 133.358 152.93 133.229 152.963 133.148C152.988 133.086 153.013 133.041 153.043 132.988C153.073 132.934 153.108 132.881 153.143 132.828C153.178 132.774 153.206 132.722 153.253 132.668C153.311 132.602 153.408 132.528 153.473 132.468C153.525 132.42 153.569 132.371 153.613 132.338C153.648 132.312 153.713 132.278 153.713 132.278L153.713 132.278L153.713 132.278C153.713 132.278 153.697 132.331 153.673 132.368C153.621 132.45 153.445 132.628 153.363 132.718C153.311 132.776 153.278 132.812 153.233 132.858C153.188 132.905 153.147 132.942 153.093 132.998C153.017 133.077 152.879 133.217 152.823 133.288C152.794 133.325 152.783 133.34 152.763 133.378C152.733 133.436 152.673 133.608 152.673 133.608L152.673 133.608L152.673 133.608C152.673 133.608 152.677 133.588 152.683 133.568C152.702 133.502 152.755 133.287 152.823 133.148C152.899 132.991 153.018 132.817 153.133 132.678C153.24 132.549 153.36 132.446 153.483 132.338C153.607 132.229 153.757 132.096 153.873 132.028C153.953 131.981 154.016 131.963 154.093 131.938C154.175 131.912 154.353 131.878 154.353 131.878" fill="#ffffff" fill-rule="nonzero" opacity="1" stroke="#ffffff" stroke-linecap="round" stroke-linejoin="round" stroke-width="2" vectornator:layerName="path"/>
<path d="M152.245 135.673L152.245 135.673L152.245 135.673C152.245 135.673 152.235 135.875 152.245 135.953C152.253 136.011 152.262 136.045 152.285 136.103C152.321 136.192 152.408 136.321 152.465 136.423C152.517 136.517 152.557 136.602 152.615 136.693C152.679 136.794 152.757 136.915 152.835 137.003C152.904 137.081 152.99 137.143 153.055 137.203C153.107 137.251 153.134 137.287 153.195 137.333C153.286 137.401 153.477 137.507 153.565 137.553C153.612 137.577 153.675 137.603 153.675 137.603" fill="#ffffff" fill-rule="nonzero" opacity="1" stroke="#ffffff" stroke-linecap="round" stroke-linejoin="round" stroke-width="2" vectornator:layerName="path"/>
<path d="M152.247 135.952L152.247 135.952C152.247 135.952 152.241 136.037 152.247 136.092C152.255 136.172 152.274 136.277 152.307 136.382C152.349 136.515 152.44 136.713 152.497 136.822C152.533 136.89 152.555 136.921 152.597 136.982C152.657 137.069 152.746 137.191 152.827 137.292C152.909 137.394 153.001 137.524 153.087 137.592C153.151 137.642 153.208 137.655 153.277 137.692C153.361 137.737 153.485 137.806 153.557 137.842C153.602 137.864 153.667 137.892 153.667 137.892" fill="#ffffff" fill-rule="nonzero" opacity="1" stroke="#ffffff" stroke-linecap="round" stroke-linejoin="round" stroke-width="2" vectornator:layerName="path"/>
<path d="M152.25 136.091L152.25 136.091C152.25 136.091 152.244 136.1 152.24 136.111C152.227 136.149 152.195 136.291 152.19 136.381C152.185 136.471 152.196 136.552 152.21 136.651C152.228 136.776 152.252 136.96 152.3 137.071C152.336 137.154 152.396 137.208 152.44 137.271C152.479 137.327 152.51 137.38 152.55 137.431C152.59 137.483 152.637 137.531 152.68 137.581C152.723 137.631 152.758 137.68 152.81 137.731C152.874 137.793 152.96 137.873 153.04 137.921C153.111 137.964 153.183 137.977 153.26 138.011C153.348 138.049 153.447 138.107 153.54 138.141C153.627 138.173 153.712 138.193 153.8 138.211C153.889 138.229 154.07 138.251 154.07 138.251" fill="#ffffff" fill-rule="nonzero" opacity="1" stroke="#ffffff" stroke-linecap="round" stroke-linejoin="round" stroke-width="2" vectornator:layerName="path"/>
<path d="M162.978 130.102C162.978 130.382 162.838 139.012 162.838 139.152C162.838 139.292 139.578 140.552 162.978 130.102Z" fill="#ffffff" fill-rule="nonzero" opacity="1" stroke="#ffffff" stroke-linecap="round" stroke-linejoin="miter" stroke-width="2" vectornator:layerName="path"/>
<path d="M155.451 133.032L155.451 133.032L155.451 133.032C155.451 133.032 155.46 133.032 155.471 133.032C155.529 133.032 155.82 133.044 156.011 133.032C156.23 133.018 156.507 132.979 156.711 132.942C156.873 132.913 157.039 132.862 157.141 132.842C157.197 132.831 157.271 132.822 157.271 132.822L157.271 132.822C157.271 132.822 157.187 132.831 157.121 132.842C156.993 132.863 156.734 132.912 156.561 132.952C156.41 132.986 156.282 133.024 156.141 133.062C155.998 133.101 155.813 133.156 155.711 133.182C155.655 133.196 155.581 133.212 155.581 133.212L155.581 133.212L155.581 133.212C155.581 133.212 155.682 133.184 155.751 133.162C155.86 133.128 156.045 133.069 156.171 133.022C156.277 132.982 156.366 132.932 156.461 132.902C156.549 132.874 156.721 132.842 156.721 132.842L156.721 132.842C156.721 132.842 156.633 132.843 156.571 132.852C156.464 132.867 156.283 132.907 156.141 132.942C156 132.977 155.829 133.024 155.721 133.062C155.651 133.086 155.551 133.132 155.551 133.132L155.551 133.132C155.551 133.132 155.576 133.129 155.601 133.122C155.689 133.097 155.978 132.969 156.181 132.902C156.397 132.831 156.662 132.752 156.861 132.712C157.014 132.682 157.271 132.662 157.271 132.662L157.271 132.662L157.271 132.662C157.271 132.662 156.89 132.687 156.701 132.712C156.513 132.737 156.327 132.774 156.141 132.812C155.954 132.85 155.735 132.916 155.581 132.942C155.475 132.96 155.311 132.972 155.311 132.972L155.311 132.972L155.311 132.972C155.311 132.972 155.696 132.817 155.901 132.752C156.118 132.683 156.342 132.627 156.581 132.572C156.843 132.512 157.146 132.464 157.411 132.412C157.654 132.364 157.908 132.302 158.111 132.272C158.265 132.249 158.521 132.232 158.521 132.232L158.521 132.232L158.521 132.232L158.521 132.232C158.521 132.232 158.204 132.272 158.101 132.282C158.042 132.288 157.961 132.292 157.961 132.292" fill="#ffffff" fill-rule="nonzero" opacity="1" stroke="#ffffff" stroke-linecap="round" stroke-linejoin="round" stroke-width="3.4" vectornator:layerName="path"/>
<path d="M155.593 132.048L155.593 132.048C155.593 132.048 155.771 132.021 155.883 131.998C156.04 131.966 156.238 131.912 156.443 131.868C156.692 131.815 157.008 131.758 157.273 131.708C157.516 131.662 157.753 131.624 157.973 131.578C158.171 131.537 158.36 131.493 158.533 131.448C158.684 131.409 158.813 131.37 158.953 131.328C159.093 131.286 159.373 131.198 159.373 131.198L159.373 131.198L159.373 131.198C159.373 131.198 159.181 131.197 159.073 131.208C158.944 131.221 158.803 131.248 158.653 131.278C158.479 131.313 158.266 131.38 158.093 131.408C157.947 131.432 157.821 131.425 157.683 131.448C157.541 131.471 157.38 131.526 157.253 131.548C157.153 131.565 157.074 131.57 156.983 131.578C156.891 131.586 156.703 131.598 156.703 131.598L156.703 131.598C156.703 131.598 156.712 131.6 156.723 131.598C156.773 131.591 157.018 131.507 157.143 131.478C157.242 131.455 157.314 131.45 157.413 131.428C157.538 131.4 157.693 131.356 157.833 131.318C157.973 131.28 158.128 131.227 158.253 131.198C158.352 131.175 158.446 131.17 158.523 131.148C158.584 131.131 158.683 131.088 158.683 131.088L158.683 131.088L158.683 131.088C158.683 131.088 158.484 131.115 158.373 131.138C158.241 131.166 158.096 131.22 157.943 131.248C157.774 131.279 157.554 131.279 157.403 131.308C157.29 131.33 157.209 131.368 157.113 131.388C157.022 131.407 156.843 131.428 156.843 131.428L156.843 131.428L156.843 131.428C156.843 131.428 156.97 131.335 157.053 131.298C157.156 131.252 157.296 131.227 157.423 131.188C157.559 131.147 157.703 131.101 157.843 131.058C157.983 131.015 158.123 130.973 158.263 130.928C158.403 130.883 158.559 130.821 158.683 130.788C158.779 130.763 158.855 130.751 158.943 130.738C159.032 130.725 159.135 130.724 159.213 130.708C159.274 130.695 159.312 130.674 159.373 130.658C159.451 130.637 159.643 130.598 159.643 130.598L159.643 130.598L159.643 130.598L159.623 130.598" fill="#ffffff" fill-rule="nonzero" opacity="1" stroke="#ffffff" stroke-linecap="round" stroke-linejoin="round" stroke-width="3.4" vectornator:layerName="path"/>
<path d="M158.239 130.66L158.239 130.66C158.239 130.66 158.277 130.626 158.309 130.61C158.362 130.582 158.459 130.553 158.539 130.53C158.625 130.506 158.71 130.495 158.809 130.47C158.934 130.438 159.089 130.378 159.229 130.35C159.365 130.322 159.502 130.313 159.639 130.3C159.776 130.287 159.925 130.277 160.049 130.27C160.151 130.264 160.236 130.263 160.329 130.26C160.422 130.257 160.531 130.262 160.609 130.25C160.667 130.241 160.759 130.21 160.759 130.21" fill="#ffffff" fill-rule="nonzero" opacity="1" stroke="#ffffff" stroke-linecap="round" stroke-linejoin="round" stroke-width="3.4" vectornator:layerName="path"/>
<path d="M156.289 131.49L156.289 131.49L156.289 131.49L156.289 131.49C156.289 131.49 156.417 131.383 156.509 131.33C156.641 131.255 156.845 131.176 157.019 131.11C157.195 131.043 157.377 130.986 157.559 130.93C157.743 130.873 157.946 130.821 158.119 130.77C158.269 130.725 158.413 130.684 158.539 130.64C158.645 130.603 158.753 130.554 158.829 130.53C158.877 130.515 158.901 130.51 158.949 130.5C159.021 130.484 159.219 130.45 159.219 130.45" fill="#ffffff" fill-rule="nonzero" opacity="1" stroke="#ffffff" stroke-linecap="round" stroke-linejoin="round" stroke-width="3.4" vectornator:layerName="path"/>
<path d="M161.582 130.241L161.592 130.251" fill="#ffffff" fill-rule="nonzero" opacity="1" stroke="#ffffff" stroke-linecap="round" stroke-linejoin="round" stroke-width="3.4" vectornator:layerName="path"/>
<path d="M162 129.962L162.01 129.972" fill="#ffffff" fill-rule="nonzero" opacity="1" stroke="#ffffff" stroke-linecap="round" stroke-linejoin="round" stroke-width="3.4" vectornator:layerName="path"/>
<path d="M155.036 138.32L155.046 138.33" fill="#ffffff" fill-rule="nonzero" opacity="1" stroke="#ffffff" stroke-linecap="round" stroke-linejoin="round" stroke-width="3.4" vectornator:layerName="path"/>
<path d="M155.453 138.32L155.463 138.33" fill="#ffffff" fill-rule="nonzero" opacity="1" stroke="#ffffff" stroke-linecap="round" stroke-linejoin="round" stroke-width="3.4" vectornator:layerName="path"/>
<path d="M156.15 138.738L156.16 138.748" fill="#ffffff" fill-rule="nonzero" opacity="1" stroke="#ffffff" stroke-linecap="round" stroke-linejoin="round" stroke-width="3.4" vectornator:layerName="path"/>
<path d="M158.379 138.877L158.389 138.887" fill="#ffffff" fill-rule="nonzero" opacity="1" stroke="#ffffff" stroke-linecap="round" stroke-linejoin="round" stroke-width="3.4" vectornator:layerName="path"/>
<path d="M158.657 139.017L158.667 139.027" fill="#ffffff" fill-rule="nonzero" opacity="1" stroke="#ffffff" stroke-linecap="round" stroke-linejoin="round" stroke-width="3.4" vectornator:layerName="path"/>
<path d="M157.543 139.295L157.553 139.305" fill="#ffffff" fill-rule="nonzero" opacity="1" stroke="#ffffff" stroke-linecap="round" stroke-linejoin="round" stroke-width="3.4" vectornator:layerName="path"/>
<path d="M159.214 139.295L159.224 139.305" fill="#ffffff" fill-rule="nonzero" opacity="1" stroke="#ffffff" stroke-linecap="round" stroke-linejoin="round" stroke-width="3.4" vectornator:layerName="path"/>
<path d="M160.189 139.295L160.199 139.305" fill="#ffffff" fill-rule="nonzero" opacity="1" stroke="#ffffff" stroke-linecap="round" stroke-linejoin="round" stroke-width="3.4" vectornator:layerName="path"/>
<path d="M161.304 139.574L161.314 139.584" fill="#ffffff" fill-rule="nonzero" opacity="1" stroke="#ffffff" stroke-linecap="round" stroke-linejoin="round" stroke-width="3.4" vectornator:layerName="path"/>
<path d="M162.557 139.295L162.567 139.305" fill="#ffffff" fill-rule="nonzero" opacity="1" stroke="#ffffff" stroke-linecap="round" stroke-linejoin="round" stroke-width="3.4" vectornator:layerName="path"/>
<path d="M163.953 135.947L163.953 135.947C163.953 135.947 163.947 135.938 163.943 135.927C163.93 135.89 163.906 135.756 163.893 135.667C163.879 135.576 163.871 135.48 163.863 135.387C163.855 135.296 163.849 135.223 163.843 135.117C163.835 134.964 163.828 134.73 163.823 134.557C163.819 134.407 163.815 134.286 163.813 134.137C163.811 133.966 163.813 133.758 163.813 133.587C163.813 133.438 163.813 133.293 163.813 133.167C163.813 133.064 163.813 132.98 163.813 132.887C163.813 132.794 163.813 132.7 163.813 132.607C163.813 132.514 163.813 132.42 163.813 132.327C163.813 132.234 163.803 132.125 163.813 132.047C163.821 131.989 163.841 131.96 163.853 131.897C163.873 131.794 163.891 131.61 163.903 131.487C163.913 131.388 163.909 131.308 163.923 131.217C163.938 131.121 163.978 131.007 163.993 130.927C164.003 130.872 164.013 130.787 164.013 130.787L164.013 130.787L164.013 130.787C164.013 130.787 164.027 130.595 164.043 130.517C164.056 130.456 164.093 130.357 164.093 130.357L164.093 130.357L164.093 130.357C164.093 130.357 164.058 130.556 164.033 130.667C164.003 130.797 163.963 130.947 163.923 131.087C163.883 131.23 163.837 131.39 163.793 131.517C163.757 131.621 163.683 131.797 163.683 131.797L163.683 131.797L163.683 131.797L163.683 131.797C163.683 131.797 163.679 131.706 163.683 131.637C163.691 131.507 163.722 131.251 163.753 131.077C163.78 130.923 163.816 130.775 163.853 130.647C163.884 130.54 163.917 130.453 163.953 130.357C163.99 130.26 164.045 130.143 164.073 130.067C164.091 130.019 164.097 129.99 164.113 129.947C164.132 129.895 164.155 129.832 164.183 129.777C164.211 129.722 164.257 129.666 164.283 129.617C164.304 129.578 164.333 129.507 164.333 129.507L164.333 129.507L164.333 129.507L164.333 129.507C164.333 129.507 164.3 129.533 164.273 129.557C164.212 129.611 164.058 129.775 163.983 129.827C163.943 129.854 163.883 129.877 163.883 129.877L163.883 129.877L163.883 129.877L163.883 129.877C163.883 129.877 163.966 129.702 164.023 129.627C164.08 129.552 164.223 129.427 164.223 129.427L164.223 129.427L164.223 129.427L164.223 129.427C164.223 129.427 164.131 129.4 164.073 129.387C163.996 129.37 163.893 129.35 163.803 129.337C163.713 129.324 163.633 129.315 163.533 129.307C163.409 129.297 163.239 129.292 163.113 129.287C163.01 129.283 162.935 129.27 162.833 129.277C162.707 129.285 162.413 129.347 162.413 129.347" fill="#ffffff" fill-rule="nonzero" opacity="1" stroke="#ffffff" stroke-linecap="round" stroke-linejoin="round" stroke-width="2" vectornator:layerName="path"/>
<path d="M163.672 134.838L163.672 134.838L163.672 134.838C163.672 134.838 163.667 134.848 163.662 134.858C163.648 134.886 163.606 134.951 163.582 135.018C163.546 135.118 163.514 135.29 163.492 135.408C163.473 135.506 163.455 135.578 163.452 135.678C163.449 135.802 163.482 135.959 163.492 136.098C163.502 136.235 163.507 136.361 163.512 136.508C163.518 136.68 163.505 136.912 163.522 137.068C163.535 137.181 163.556 137.253 163.582 137.358C163.613 137.486 163.66 137.652 163.702 137.778C163.737 137.884 163.774 137.972 163.812 138.068C163.85 138.165 163.892 138.277 163.932 138.358C163.962 138.42 163.989 138.465 164.022 138.518C164.056 138.572 164.094 138.626 164.132 138.678C164.17 138.73 164.252 138.828 164.252 138.828L164.252 138.828L164.252 138.828L164.252 138.828C164.252 138.828 164.217 138.671 164.192 138.588C164.164 138.495 164.128 138.379 164.092 138.298C164.064 138.235 164.033 138.191 164.002 138.138C163.97 138.084 163.938 138.031 163.902 137.978C163.865 137.924 163.8 137.839 163.782 137.818C163.777 137.812 163.772 137.808 163.772 137.808L163.772 137.808L163.772 137.808L163.772 137.808C163.772 137.808 163.795 137.886 163.812 137.928C163.833 137.978 163.855 138.028 163.892 138.088C163.946 138.176 164.057 138.314 164.122 138.398C164.168 138.457 164.201 138.498 164.242 138.548C164.284 138.598 164.329 138.648 164.372 138.698C164.415 138.748 164.468 138.803 164.502 138.848C164.527 138.881 164.538 138.904 164.562 138.938C164.595 138.984 164.682 139.098 164.682 139.098L164.682 139.098L164.682 139.098C164.682 139.098 164.63 139.182 164.592 139.228C164.541 139.29 164.464 139.365 164.392 139.428C164.318 139.492 164.236 139.552 164.152 139.608C164.066 139.665 163.957 139.716 163.882 139.768C163.823 139.809 163.79 139.847 163.732 139.888C163.659 139.94 163.472 140.048 163.472 140.048" fill="#ffffff" fill-rule="nonzero" opacity="1" stroke="#ffffff" stroke-linecap="round" stroke-linejoin="round" stroke-width="2" vectornator:layerName="path"/>
<path d="M164.233 138.04L164.233 138.04L164.233 138.04C164.233 138.04 164.14 137.969 164.103 137.92C164.062 137.865 164.039 137.799 164.003 137.72C163.952 137.608 163.875 137.447 163.833 137.31C163.793 137.18 163.784 137.053 163.753 136.92C163.721 136.78 163.671 136.616 163.643 136.49C163.621 136.393 163.605 136.319 163.593 136.23C163.581 136.139 163.573 135.95 163.573 135.95L163.573 135.95L163.573 135.95C163.573 135.95 163.543 136.121 163.553 136.23C163.568 136.388 163.63 136.603 163.703 136.8C163.788 137.03 163.928 137.295 164.053 137.52C164.169 137.73 164.329 137.95 164.423 138.11C164.486 138.216 164.573 138.38 164.573 138.38" fill="#ffffff" fill-rule="nonzero" opacity="1" stroke="#ffffff" stroke-linecap="round" stroke-linejoin="round" stroke-width="2" vectornator:layerName="path"/>
<path d="M227.192 122.581L227.192 122.581L227.192 122.581L227.192 122.581L227.192 122.581C227.192 122.581 227.144 122.944 227.112 123.141C227.076 123.362 227.01 123.608 226.982 123.841C226.954 124.071 226.953 124.329 226.942 124.531C226.934 124.688 226.925 124.825 226.922 124.951C226.92 125.054 226.922 125.231 226.922 125.231L226.922 125.231L226.922 125.231C226.922 125.231 226.923 125.146 226.922 125.091C226.921 125.014 226.906 124.914 226.912 124.811C226.92 124.683 226.964 124.523 226.982 124.381C227 124.243 227.001 124.095 227.022 123.971C227.04 123.865 227.064 123.786 227.092 123.681C227.126 123.554 227.183 123.386 227.212 123.261C227.235 123.162 227.241 123.082 227.262 122.991C227.284 122.896 227.311 122.782 227.342 122.701C227.366 122.638 227.392 122.594 227.422 122.541C227.452 122.487 227.496 122.432 227.522 122.381C227.544 122.339 227.557 122.301 227.572 122.261C227.587 122.221 227.612 122.141 227.612 122.141L227.612 122.141L227.612 122.141C227.612 122.141 227.613 122.15 227.612 122.161C227.608 122.212 227.572 122.449 227.542 122.591C227.512 122.733 227.46 122.86 227.432 123.011C227.401 123.181 227.399 123.407 227.372 123.561C227.352 123.674 227.322 123.746 227.302 123.851C227.278 123.973 227.253 124.152 227.242 124.251C227.236 124.309 227.232 124.391 227.232 124.391" fill="#ffffff" fill-rule="nonzero" opacity="1" stroke="#ffffff" stroke-linecap="round" stroke-linejoin="round" stroke-width="2" vectornator:layerName="path"/>
<path d="M227.889 121.744L227.889 121.744L227.889 121.744C227.889 121.744 227.847 122.014 227.819 122.164C227.786 122.338 227.727 122.537 227.699 122.724C227.671 122.907 227.661 123.09 227.649 123.274C227.637 123.46 227.648 123.661 227.629 123.834C227.612 123.985 227.57 124.09 227.549 124.254C227.52 124.483 227.511 124.834 227.499 125.084C227.489 125.289 227.482 125.471 227.479 125.644C227.476 125.794 227.481 125.938 227.479 126.064C227.477 126.167 227.46 126.266 227.469 126.344C227.476 126.402 227.509 126.494 227.509 126.494" fill="#ffffff" fill-rule="nonzero" opacity="1" stroke="#ffffff" stroke-linecap="round" stroke-linejoin="round" stroke-width="2" vectornator:layerName="path"/>
<path d="M227.465 124.253L227.465 124.253C227.465 124.253 227.466 124.263 227.465 124.273C227.461 124.311 227.42 124.444 227.405 124.533C227.39 124.624 227.383 124.72 227.375 124.813C227.367 124.906 227.36 124.991 227.355 125.093C227.349 125.217 227.349 125.379 227.345 125.503C227.342 125.605 227.337 125.68 227.335 125.783C227.333 125.909 227.335 126.053 227.335 126.203C227.335 126.376 227.335 126.61 227.335 126.763C227.335 126.869 227.335 126.933 227.335 127.033C227.335 127.158 227.337 127.327 227.335 127.453C227.333 127.556 227.327 127.64 227.325 127.733C227.323 127.826 227.325 127.92 227.325 128.013C227.325 128.106 227.325 128.2 227.325 128.293C227.325 128.386 227.315 128.495 227.325 128.573C227.333 128.631 227.353 128.665 227.365 128.723C227.381 128.799 227.385 128.916 227.405 128.993C227.421 129.054 227.441 129.093 227.465 129.153C227.497 129.234 227.546 129.352 227.585 129.433C227.616 129.497 227.642 129.548 227.675 129.603C227.708 129.658 227.746 129.703 227.785 129.763C227.834 129.839 227.945 130.023 227.945 130.023L227.945 130.023L227.945 130.023L227.945 130.023C227.945 130.023 227.851 129.868 227.805 129.773C227.748 129.657 227.699 129.525 227.635 129.373C227.551 129.172 227.409 128.894 227.345 128.673C227.291 128.487 227.289 128.322 227.255 128.143C227.22 127.959 227.162 127.756 227.135 127.583C227.112 127.436 227.093 127.274 227.095 127.173C227.096 127.114 227.108 127.088 227.115 127.033C227.125 126.956 227.145 126.753 227.145 126.753L227.145 126.753L227.145 126.753C227.145 126.753 227.145 126.757 227.145 126.763C227.146 126.8 227.147 127.035 227.165 127.173C227.183 127.315 227.21 127.461 227.255 127.603C227.302 127.751 227.387 127.898 227.445 128.043C227.5 128.181 227.545 128.315 227.595 128.453C227.645 128.592 227.697 128.768 227.745 128.873C227.776 128.941 227.81 128.972 227.835 129.033C227.865 129.106 227.905 129.283 227.905 129.283L227.905 129.283L227.905 129.283L227.905 129.283C227.905 129.283 227.899 129.263 227.895 129.243C227.881 129.179 227.854 128.987 227.825 128.843C227.79 128.672 227.725 128.481 227.695 128.283C227.662 128.066 227.657 127.811 227.645 127.593C227.634 127.397 227.63 127.219 227.625 127.033C227.62 126.849 227.617 126.654 227.615 126.483C227.614 126.334 227.615 126.189 227.615 126.063C227.615 125.96 227.616 125.886 227.615 125.783C227.614 125.657 227.607 125.503 227.605 125.363C227.603 125.223 227.605 125.068 227.605 124.943C227.605 124.843 227.597 124.773 227.605 124.673C227.615 124.546 227.658 124.37 227.675 124.243C227.689 124.143 227.689 124.051 227.705 123.973C227.718 123.912 227.735 123.85 227.755 123.813C227.767 123.79 227.782 123.784 227.795 123.763C227.813 123.734 227.824 123.698 227.845 123.653C227.879 123.581 227.985 123.373 227.985 123.373" fill="#ffffff" fill-rule="nonzero" opacity="1" stroke="#ffffff" stroke-linecap="round" stroke-linejoin="round" stroke-width="2" vectornator:layerName="path"/>
<path d="M227.744 123.415L227.744 123.415L227.744 123.415C227.744 123.415 227.738 123.322 227.744 123.275C227.75 123.225 227.784 123.125 227.784 123.125" fill="#ffffff" fill-rule="nonzero" opacity="1" stroke="#ffffff" stroke-linecap="round" stroke-linejoin="round" stroke-width="2" vectornator:layerName="path"/>
<path d="M226.078 129.542L226.078 129.542L226.078 129.542C226.078 129.542 226.204 129.607 226.258 129.632C226.302 129.652 226.378 129.682 226.378 129.682" fill="#ffffff" fill-rule="nonzero" opacity="1" stroke="#ffffff" stroke-linecap="round" stroke-linejoin="round" stroke-width="2" vectornator:layerName="path"/>
<path d="M216.325 125.229L216.325 125.229C216.325 125.229 216.315 125.224 216.305 125.219C216.277 125.205 216.177 125.183 216.145 125.139C216.111 125.092 216.11 125.011 216.115 124.939C216.122 124.851 216.156 124.753 216.205 124.649C216.272 124.507 216.415 124.316 216.515 124.179C216.597 124.066 216.655 123.985 216.755 123.879C216.889 123.737 217.103 123.555 217.265 123.419C217.404 123.303 217.542 123.208 217.665 123.109C217.773 123.022 217.87 122.92 217.965 122.859C218.038 122.812 218.111 122.794 218.175 122.759C218.233 122.727 218.335 122.659 218.335 122.659L218.335 122.659L218.335 122.659C218.335 122.659 218.286 122.679 218.245 122.699C218.153 122.744 217.948 122.844 217.805 122.939C217.651 123.041 217.489 123.188 217.355 123.299C217.244 123.392 217.17 123.455 217.055 123.559C216.894 123.705 216.641 123.928 216.485 124.099C216.36 124.235 216.258 124.393 216.175 124.489C216.124 124.549 216.078 124.585 216.045 124.629C216.019 124.664 215.985 124.729 215.985 124.729L215.985 124.729L215.985 124.729C215.985 124.729 216.028 124.576 216.055 124.509C216.079 124.45 216.098 124.409 216.135 124.349C216.189 124.261 216.278 124.158 216.365 124.039C216.483 123.878 216.6 123.64 216.775 123.469C216.973 123.275 217.25 123.13 217.515 122.959C217.812 122.767 218.167 122.573 218.475 122.379C218.766 122.196 219.063 122 219.315 121.829C219.525 121.687 219.767 121.496 219.885 121.429C219.934 121.401 219.959 121.389 219.995 121.379C220.026 121.371 220.085 121.369 220.085 121.369L220.085 121.369L220.085 121.369C220.085 121.369 220.004 121.646 219.945 121.769C219.889 121.885 219.828 121.985 219.745 122.089C219.652 122.206 219.535 122.321 219.405 122.429C219.259 122.55 219.078 122.676 218.905 122.769C218.738 122.858 218.562 122.916 218.385 122.979C218.206 123.043 217.985 123.111 217.835 123.149C217.733 123.174 217.575 123.199 217.575 123.199L217.575 123.199L217.575 123.199C217.575 123.199 217.578 123.188 217.585 123.179C217.62 123.134 217.825 122.962 217.965 122.859C218.121 122.744 218.299 122.646 218.485 122.529C218.699 122.395 218.957 122.225 219.175 122.099C219.364 121.989 219.532 121.892 219.715 121.809C219.892 121.729 220.073 121.669 220.255 121.609C220.436 121.549 220.621 121.487 220.805 121.449C220.984 121.412 221.164 121.409 221.345 121.379C221.53 121.349 221.78 121.29 221.905 121.269C221.967 121.258 222.045 121.249 222.045 121.249L222.045 121.249L222.045 121.249C222.045 121.249 221.832 121.366 221.715 121.419C221.587 121.477 221.459 121.517 221.305 121.579C221.104 121.66 220.816 121.79 220.615 121.869C220.461 121.929 220.352 121.96 220.205 122.019C220.03 122.089 219.791 122.198 219.635 122.269C219.525 122.319 219.458 122.354 219.355 122.399C219.232 122.453 219.068 122.53 218.945 122.569C218.85 122.599 218.773 122.614 218.685 122.629C218.596 122.644 218.49 122.649 218.415 122.659C218.361 122.666 218.275 122.679 218.275 122.679L218.275 122.679L218.275 122.679C218.275 122.679 218.376 122.634 218.445 122.599C218.558 122.542 218.74 122.429 218.885 122.359C219.02 122.294 219.15 122.244 219.285 122.189C219.42 122.134 219.547 122.079 219.695 122.029C219.864 121.972 220.075 121.906 220.245 121.869C220.388 121.838 220.501 121.835 220.645 121.809C220.816 121.778 221.031 121.73 221.205 121.689C221.358 121.653 221.508 121.607 221.635 121.579C221.735 121.557 221.814 121.55 221.905 121.529C222 121.507 222.1 121.471 222.195 121.449C222.286 121.428 222.366 121.421 222.465 121.399C222.59 121.371 222.745 121.316 222.885 121.289C223.022 121.263 223.191 121.264 223.295 121.239C223.362 121.223 223.394 121.196 223.455 121.179C223.53 121.158 223.627 121.142 223.715 121.129C223.804 121.116 223.894 121.107 223.985 121.099C224.077 121.091 224.172 121.084 224.265 121.079C224.358 121.074 224.452 121.072 224.545 121.069C224.638 121.066 224.732 121.062 224.825 121.059C224.918 121.056 225.013 121.051 225.105 121.049C225.196 121.047 225.33 121.042 225.375 121.049C225.39 121.051 225.39 121.055 225.405 121.059C225.449 121.07 225.577 121.096 225.665 121.109C225.754 121.122 225.844 121.131 225.935 121.139C226.027 121.147 226.138 121.153 226.215 121.159C226.27 121.163 226.3 121.167 226.355 121.169C226.432 121.172 226.635 121.169 226.635 121.169L226.635 121.169L226.635 121.169L226.635 121.169C226.635 121.169 226.427 121.265 226.325 121.309C226.227 121.351 226.129 121.397 226.035 121.429C225.949 121.459 225.879 121.48 225.785 121.499C225.666 121.523 225.522 121.526 225.375 121.549C225.202 121.576 225.002 121.632 224.815 121.659C224.632 121.685 224.449 121.684 224.265 121.709C224.079 121.734 223.892 121.786 223.705 121.809C223.519 121.832 223.298 121.838 223.145 121.849C223.039 121.857 222.953 121.856 222.875 121.869C222.814 121.879 222.781 121.896 222.715 121.909C222.612 121.93 222.45 121.943 222.315 121.969C222.174 121.996 222.027 122.046 221.885 122.069C221.747 122.092 221.622 122.087 221.475 122.109C221.302 122.134 221.068 122.195 220.915 122.219C220.809 122.235 220.645 122.249 220.645 122.249L220.645 122.249L220.645 122.249C220.645 122.249 220.916 122.24 221.065 122.209C221.245 122.171 221.443 122.077 221.645 122.019C221.862 121.957 222.096 121.904 222.325 121.849C222.556 121.794 222.792 121.739 223.025 121.689C223.256 121.639 223.484 121.581 223.715 121.549C223.944 121.518 224.188 121.526 224.405 121.499C224.602 121.474 224.791 121.423 224.965 121.399C225.115 121.379 225.246 121.367 225.385 121.359C225.522 121.351 225.658 121.352 225.795 121.349C225.934 121.346 226.113 121.344 226.215 121.339C226.274 121.336 226.355 121.329 226.355 121.329L226.355 121.329L226.355 121.329C226.355 121.329 226.346 121.335 226.335 121.339C226.297 121.352 226.176 121.375 226.065 121.389C225.888 121.412 225.605 121.414 225.375 121.439C225.142 121.464 224.919 121.516 224.675 121.539C224.411 121.564 224.093 121.569 223.845 121.579C223.643 121.588 223.466 121.596 223.295 121.599C223.146 121.602 223.001 121.599 222.875 121.599C222.772 121.599 222.688 121.599 222.595 121.599C222.502 121.599 222.418 121.599 222.315 121.599C222.189 121.599 222.021 121.597 221.895 121.599C221.792 121.601 221.717 121.607 221.615 121.609C221.491 121.611 221.342 121.609 221.205 121.609C221.066 121.609 220.911 121.609 220.785 121.609C220.682 121.609 220.608 121.609 220.505 121.609C220.379 121.609 220.212 121.598 220.085 121.609C219.979 121.618 219.891 121.634 219.795 121.659C219.697 121.684 219.617 121.716 219.505 121.759C219.346 121.82 219.133 121.905 218.935 121.999C218.709 122.107 218.447 122.246 218.225 122.379C218.019 122.503 217.821 122.649 217.645 122.769C217.496 122.87 217.34 122.977 217.235 123.049C217.169 123.094 217.096 123.135 217.075 123.159C217.068 123.167 217.065 123.179 217.065 123.179" fill="#ffffff" fill-rule="nonzero" opacity="1" stroke="#ffffff" stroke-linecap="round" stroke-linejoin="round" stroke-width="2" vectornator:layerName="path"/>
<path d="M220.221 121.184L220.221 121.184C220.221 121.184 220.135 121.184 220.091 121.184C220.045 121.184 220.006 121.178 219.951 121.184C219.871 121.192 219.757 121.219 219.661 121.244C219.564 121.269 219.468 121.291 219.371 121.334C219.264 121.382 219.164 121.454 219.051 121.524C218.92 121.605 218.758 121.702 218.631 121.794C218.517 121.876 218.42 121.97 218.321 122.044C218.235 122.108 218.157 122.161 218.071 122.214C217.984 122.268 217.891 122.314 217.801 122.364C217.711 122.414 217.612 122.454 217.531 122.514C217.453 122.572 217.384 122.655 217.321 122.714C217.27 122.762 217.227 122.799 217.181 122.844C217.134 122.889 217.076 122.941 217.041 122.984C217.015 123.016 217.005 123.041 216.981 123.074C216.949 123.118 216.893 123.178 216.861 123.224C216.836 123.26 216.824 123.287 216.801 123.324C216.772 123.371 216.731 123.424 216.701 123.484C216.666 123.554 216.645 123.633 216.611 123.724C216.567 123.842 216.509 124.01 216.461 124.134C216.42 124.239 216.372 124.318 216.341 124.424C216.306 124.543 216.289 124.682 216.271 124.814C216.252 124.949 216.254 125.1 216.231 125.224C216.211 125.33 216.172 125.408 216.151 125.514C216.126 125.638 216.113 125.8 216.101 125.924C216.091 126.026 216.088 126.111 216.081 126.204C216.074 126.297 216.064 126.407 216.061 126.484C216.059 126.539 216.062 126.57 216.061 126.624C216.06 126.699 216.052 126.819 216.051 126.894C216.05 126.948 216.045 126.987 216.051 127.034C216.057 127.084 216.091 127.184 216.091 127.184" fill="#ffffff" fill-rule="nonzero" opacity="1" stroke="#ffffff" stroke-linecap="round" stroke-linejoin="round" stroke-width="2" vectornator:layerName="path"/>
<path d="M216.464 123.833L216.464 123.833L216.464 123.833C216.464 123.833 216.422 123.863 216.394 123.883C216.353 123.912 216.295 123.947 216.244 123.993C216.179 124.051 216.105 124.135 216.044 124.213C215.982 124.292 215.938 124.369 215.874 124.463C215.79 124.585 215.665 124.759 215.584 124.883C215.521 124.979 215.465 125.056 215.424 125.143C215.387 125.222 215.375 125.3 215.344 125.383C215.309 125.476 215.249 125.595 215.224 125.673C215.208 125.724 215.205 125.752 215.194 125.803C215.179 125.877 215.157 125.983 215.144 126.073C215.131 126.163 215.121 126.268 215.114 126.343C215.109 126.397 215.101 126.437 215.104 126.483C215.107 126.53 215.126 126.576 215.134 126.623C215.142 126.67 215.142 126.715 215.154 126.763C215.167 126.815 215.199 126.872 215.214 126.923C215.228 126.968 215.229 127.008 215.244 127.053C215.261 127.104 215.286 127.153 215.314 127.213C215.352 127.294 215.409 127.414 215.454 127.493C215.489 127.555 215.525 127.592 215.554 127.653C215.587 127.723 215.596 127.809 215.634 127.893C215.68 127.994 215.766 128.126 215.824 128.213C215.867 128.277 215.904 128.321 215.944 128.373C215.984 128.424 216.022 128.465 216.064 128.523C216.117 128.597 216.181 128.709 216.234 128.783C216.276 128.841 216.354 128.933 216.354 128.933" fill="#ffffff" fill-rule="nonzero" opacity="1" stroke="#ffffff" stroke-linecap="round" stroke-linejoin="round" stroke-width="2" vectornator:layerName="path"/>
<path d="M216.043 126.341L216.043 126.341L216.043 126.341C216.043 126.341 216.043 126.426 216.043 126.481C216.043 126.558 216.043 126.668 216.043 126.761C216.043 126.854 216.043 126.948 216.043 127.041C216.043 127.134 216.033 127.228 216.043 127.321C216.053 127.415 216.079 127.507 216.103 127.601C216.128 127.697 216.158 127.795 216.193 127.891C216.228 127.988 216.273 128.1 216.313 128.181C216.343 128.243 216.37 128.288 216.403 128.341C216.437 128.395 216.476 128.448 216.513 128.501C216.55 128.554 216.582 128.602 216.623 128.661C216.674 128.735 216.74 128.837 216.793 128.911C216.836 128.971 216.873 129.019 216.913 129.071C216.953 129.122 216.978 129.17 217.033 129.221C217.114 129.296 217.265 129.383 217.373 129.451C217.467 129.511 217.553 129.559 217.643 129.611C217.733 129.662 217.823 129.712 217.913 129.761C218.003 129.809 218.092 129.853 218.183 129.901C218.276 129.95 218.463 130.051 218.463 130.051" fill="#ffffff" fill-rule="nonzero" opacity="1" stroke="#ffffff" stroke-linecap="round" stroke-linejoin="round" stroke-width="2" vectornator:layerName="path"/>
<path d="M216.745 129.403L216.745 129.403L216.745 129.403L216.705 129.253L216.705 129.253C216.705 129.253 216.945 129.297 217.035 129.323C217.099 129.342 217.13 129.353 217.195 129.383C217.305 129.434 217.496 129.555 217.625 129.623C217.728 129.677 217.803 129.714 217.905 129.763C218.026 129.82 218.17 129.888 218.305 129.943C218.44 129.998 218.591 130.057 218.715 130.093C218.813 130.122 218.895 130.138 218.985 130.153C219.075 130.168 219.155 130.182 219.255 130.183C219.38 130.184 219.55 130.154 219.675 130.143C219.775 130.135 219.854 130.128 219.945 130.123C220.037 130.118 220.122 130.115 220.225 130.113C220.351 130.111 220.519 130.115 220.645 130.113C220.748 130.111 220.823 130.105 220.925 130.103C221.049 130.101 221.277 130.112 221.335 130.103C221.351 130.1 221.365 130.093 221.365 130.093" fill="#ffffff" fill-rule="nonzero" opacity="1" stroke="#ffffff" stroke-linecap="round" stroke-linejoin="round" stroke-width="2" vectornator:layerName="path"/>
<path d="M216.604 128.987L216.604 128.987C216.604 128.987 216.609 128.997 216.614 129.007C216.628 129.035 216.651 129.112 216.694 129.167C216.756 129.247 216.877 129.343 216.984 129.417C217.096 129.494 217.218 129.545 217.354 129.617C217.519 129.705 217.719 129.84 217.904 129.907C218.075 129.969 218.248 129.978 218.424 130.017C218.607 130.058 218.811 130.102 218.984 130.147C219.135 130.186 219.279 130.24 219.404 130.267C219.503 130.288 219.574 130.295 219.674 130.307C219.796 130.322 219.946 130.337 220.084 130.347C220.223 130.357 220.354 130.351 220.504 130.367C220.678 130.385 220.878 130.424 221.064 130.457C221.251 130.49 221.438 130.525 221.624 130.567C221.811 130.609 222.03 130.679 222.184 130.707C222.289 130.726 222.363 130.727 222.454 130.737C222.546 130.747 222.657 130.763 222.734 130.767C222.789 130.77 222.874 130.767 222.874 130.767L222.874 130.767" fill="#ffffff" fill-rule="nonzero" opacity="1" stroke="#ffffff" stroke-linecap="round" stroke-linejoin="round" stroke-width="2" vectornator:layerName="path"/>
<path d="M217.579 129.823L217.579 129.823C217.579 129.823 217.582 129.833 217.589 129.843C217.616 129.881 217.735 130.018 217.839 130.093C217.967 130.186 218.152 130.276 218.319 130.333C218.485 130.389 218.675 130.394 218.839 130.433C218.99 130.469 219.117 130.512 219.269 130.553C219.441 130.599 219.648 130.661 219.819 130.693C219.965 130.72 220.082 130.73 220.229 130.743C220.399 130.758 220.608 130.766 220.779 130.773C220.928 130.779 221.059 130.78 221.199 130.783C221.339 130.786 221.479 130.791 221.619 130.793C221.759 130.795 221.899 130.793 222.039 130.793C222.179 130.793 222.334 130.793 222.459 130.793C222.559 130.793 222.651 130.8 222.729 130.793C222.79 130.787 222.823 130.773 222.889 130.763C222.992 130.747 223.154 130.726 223.289 130.713C223.427 130.699 223.583 130.69 223.709 130.683C223.812 130.677 223.896 130.676 223.989 130.673C224.082 130.67 224.177 130.665 224.269 130.663C224.36 130.661 224.539 130.663 224.539 130.663L224.539 130.663" fill="#ffffff" fill-rule="nonzero" opacity="1" stroke="#ffffff" stroke-linecap="round" stroke-linejoin="round" stroke-width="2" vectornator:layerName="path"/>
<path d="M218.554 129.962L218.554 129.962L218.554 129.962C218.554 129.962 218.626 130.046 218.674 130.082C218.73 130.124 218.789 130.161 218.874 130.192C219.004 130.239 219.229 130.266 219.394 130.292C219.541 130.315 219.675 130.319 219.814 130.342C219.955 130.365 220.094 130.41 220.234 130.432C220.371 130.453 220.497 130.461 220.644 130.472C220.816 130.485 221.032 130.495 221.204 130.502C221.351 130.508 221.476 130.51 221.614 130.512C221.753 130.514 221.908 130.512 222.034 130.512C222.137 130.512 222.237 130.509 222.314 130.512C222.369 130.514 222.399 130.52 222.454 130.522C222.531 130.525 222.641 130.522 222.734 130.522C222.827 130.522 222.912 130.514 223.014 130.522C223.14 130.532 223.294 130.575 223.434 130.592C223.571 130.608 223.706 130.614 223.844 130.622C223.983 130.63 224.124 130.637 224.264 130.642C224.404 130.647 224.558 130.651 224.684 130.652C224.787 130.653 224.871 130.652 224.964 130.652C225.057 130.652 225.142 130.66 225.244 130.652C225.37 130.642 225.539 130.597 225.664 130.582C225.764 130.57 225.856 130.577 225.934 130.562C225.995 130.55 226.094 130.512 226.094 130.512" fill="#ffffff" fill-rule="nonzero" opacity="1" stroke="#ffffff" stroke-linecap="round" stroke-linejoin="round" stroke-width="2" vectornator:layerName="path"/>
<path d="M222.454 130.66L222.454 130.66C222.454 130.66 222.488 130.693 222.524 130.71C222.613 130.751 222.865 130.799 223.024 130.83C223.167 130.858 223.296 130.888 223.434 130.89C223.573 130.892 223.704 130.852 223.854 130.84C224.025 130.827 224.233 130.839 224.404 130.82C224.557 130.803 224.707 130.759 224.834 130.74C224.934 130.725 225.013 130.718 225.104 130.71C225.196 130.702 225.291 130.695 225.384 130.69C225.475 130.685 225.563 130.683 225.654 130.68C225.746 130.677 225.857 130.671 225.934 130.67C225.989 130.669 226.019 130.676 226.074 130.67C226.154 130.662 226.269 130.627 226.364 130.61C226.455 130.594 226.559 130.578 226.634 130.57C226.688 130.564 226.719 130.564 226.774 130.56C226.851 130.554 226.977 130.543 227.054 130.54C227.109 130.538 227.14 130.541 227.194 130.54C227.269 130.539 227.464 130.53 227.464 130.53" fill="#ffffff" fill-rule="nonzero" opacity="1" stroke="#ffffff" stroke-linecap="round" stroke-linejoin="round" stroke-width="2" vectornator:layerName="path"/>
<path d="M220.365 129.684L220.365 129.684C220.365 129.684 221.007 129.841 221.345 129.884C221.702 129.93 222.455 129.944 222.455 129.944" fill="#ffffff" fill-rule="nonzero" opacity="1" stroke="#ffffff" stroke-linecap="round" stroke-linejoin="round" stroke-width="2" vectornator:layerName="path"/>
<path d="M446.302 259.924L446.312 259.934" fill="#ffffff" fill-rule="nonzero" opacity="1" stroke="#ffffff" stroke-linecap="round" stroke-linejoin="round" stroke-width="2" vectornator:layerName="path"/>
<path d="M171.221 11.2987C173.792 8.34218 173.396 7.53735 176.339 5.77183C179.281 4.0063 179.946 3.90395 182.991 4.23659C186.036 4.56922 186.855 5.31125 188.518 7.10236C190.181 8.89347 188.262 10.0449 189.644 11.401C191.026 12.7572 194.045 12.5269 194.045 12.5269C194.045 12.5269 196.366 13.2334 197.627 9.66109C198.241 7.92116 198.446 7.30706 200.363 5.8348C202.091 4.50762 204.28 4.03189 204.28 4.03189C204.28 4.03189 208.333 3.36282 209.909 4.44129C211.854 5.77183 212.029 7.94116 212.029 7.94116L213.287 14.0621L218.404 14.3691L220.727 9.18811L224.136 5.87417L227.106 3.826C227.106 3.826 229.055 1.9854 231.505 2.29196C233.954 2.59851 236.904 5.05223 236.904 5.05223L239.919 7.09743L241.126 9.96814L243.075 13.0459L245.015 16.1091L251.156 16.3138L255.207 10.9475L259.147 8.35275L262.903 6.52987L267.429 7.20471C267.429 7.20471 274.389 10.2752 271.064 18.7904C270.815 19.4293 264.844 25.0833 266.973 25.5252C281.002 28.4368 281.2 34.5449 280.717 37.0475C280.129 40.0972 279.747 41.2759 277.67 42.8838C276.575 43.7314 267.989 46.07 271.17 47.7349C271.17 47.7349 273.455 48.9892 275.043 50.4046C276.526 51.7276 277.707 53.7924 278.304 54.8501C279.199 56.4346 278.19 61.0403 278.027 61.0403C277.883 61.0403 275.35 65.9971 274.183 67.8814C272.864 70.0111 270.931 71.3762 272.398 71.8893C277.664 73.7316 276.629 77.9017 277.413 78.9514C277.853 79.5407 276.717 86.796 275.534 89.2895C273.839 92.8596 270.608 96.5394 272.181 97.0449C274.798 97.886 276.695 96.8924 277.992 100.191C279.116 103.054 278.76 105.003 278.97 105.694C280.072 109.306 271.764 120.106 271.764 120.106C271.764 120.106 268.787 115.552 266.224 113.67C258.15 107.741 254.009 99.1676 251.254 95.2663C249.779 93.1779 250.817 92.7438 249.194 93.599C240.67 98.0907 241.077 84.5076 239.83 86.181C236.064 91.2333 231.21 85.0795 229.657 86.4209C226.673 88.9991 218.882 86.681 218.882 86.681C218.882 86.681 207.406 89.8004 198.539 89.1911C196.705 89.0651 193.162 85.0019 192.539 85.8214C187.96 91.8474 173.44 93.1676 173.44 93.1676L164.665 95.4449L158.647 96.0463L154.234 96.3212L149.17 96.8625C149.17 96.8625 139.176 113.63 132.929 114.944C130.337 115.49 126.653 127.874 120.734 130.984C115.826 133.562 115.154 129.934 115.154 129.934L109.532 127.497C109.532 127.497 106.593 125.897 108.773 121.38C110.953 116.862 111.915 116.16 111.915 116.16C111.915 116.16 105.572 112.199 105.367 108.387C105.163 104.574 108.844 100.808 108.844 100.808C108.844 100.808 98.7113 97.5214 100.605 93.6888C102.498 89.8562 100.167 86.4908 99.1883 85.5039C97.6319 83.9341 98.7362 80.7769 98.9113 79.9132C99.4732 77.1405 100.075 73.7321 100.018 72.1001C99.9521 70.2422 99.2877 67.8733 98.6342 66.0663C97.688 63.4502 102.806 58.9391 102.806 58.8445C102.806 58.7739 99.5498 54.5164 98.8277 51.1359C98.5273 49.7291 98.7696 48.1906 98.6093 46.6493C98.4864 45.4677 99.818 44.2912 101.091 42.5682C103 39.986 106.183 37.2488 106.183 37.2488C106.183 37.2488 102.258 29.0336 105.942 25.5311C109.923 21.7465 120.41 23.3746 120.41 23.534C120.41 23.681 120.99 11.6929 126.077 9.82528C131.616 7.79193 144.462 13.5038 144.462 13.5038C144.462 13.5038 156.974-9.65185 166.057 17.5978C166.364 18.5189 168.651 14.2552 171.221 11.2987Z" fill="#000000" fill-rule="nonzero" opacity="1" stroke="#000000" stroke-linecap="butt" stroke-linejoin="round" stroke-width="2"/>
<path d="M161.873 127.512C161.873 127.512 169.814 126.762 171.518 127.343C172.685 127.742 174.565 128.962 174.565 128.962C174.565 128.962 175.502 129.683 176.193 130.445C177.085 131.427 177.149 132.326 177.149 132.326L177.021 134.444C177.021 134.444 176.892 135.021 175.547 136.242C174.679 137.03 173.959 137.319 173.652 137.62C173.176 138.088 171.674 138.761 171.674 138.761C171.674 138.761 171.629 138.68 168.634 140.107C167.88 140.466 167.217 140.811 167.051 140.898C164.761 142.094 166.8 139.407 166.242 138.092C165.096 135.392 165.339 130.4 166.045 128.988C166.655 127.767 161.873 127.512 161.873 127.512Z" fill="#000000" fill-rule="nonzero" opacity="1" stroke="#000000" stroke-linecap="butt" stroke-linejoin="round" stroke-width="2.01446"/>
<path d="M162.451 141.825C163.355 141.825 164.665 141.408 165.339 140.734C165.426 140.647 166.109 140.336 166.109 140.285C166.109 140.122 165.806 140.404 165.66 140.477C165.471 140.571 165.275 140.648 165.082 140.734C164.466 141.008 163.94 141.381 163.285 141.568C163.045 141.637 162.81 141.733 162.579 141.825C162.446 141.878 162.05 142.018 162.194 142.018C162.948 142.018 164.03 141.2 164.633 140.798C164.969 140.574 165.66 140.156 165.66 140.156C165.66 140.156 165.321 140.417 165.146 140.541C164.455 141.035 163.654 141.591 162.836 141.825C162.765 141.845 161.809 142.124 161.809 142.018C161.809 141.445 163.658 141.175 164.119 140.991C164.837 140.704 165.392 140.228 166.045 139.835C166.185 139.752 166.494 139.643 166.494 139.643C166.494 139.643 165.627 140.093 165.211 140.349C164.389 140.854 162.994 141.697 162.001 141.697C161.604 141.697 161.208 141.889 160.782 141.889C160.609 141.889 160.114 142.031 160.268 141.954C160.909 141.633 161.681 141.697 162.322 141.44C162.695 141.291 163.413 140.927 163.413 140.927C163.413 140.927 163.067 141.045 162.9 141.119C162.237 141.414 161.696 141.697 160.974 141.697C160.672 141.697 159.773 141.825 160.076 141.825C161.724 141.825 163.82 140.627 165.275 139.9" fill="#000000" fill-rule="nonzero" opacity="1" stroke="#000000" stroke-linecap="round" stroke-linejoin="round" stroke-width="0.719047"/>
<path d="M154.235 140.477C154.724 140.803 156.898 141.504 157.637 141.504" fill="#000000" fill-rule="nonzero" opacity="1" stroke="#000000" stroke-linecap="round" stroke-linejoin="round" stroke-width="0.719047"/>
<path d="M153.721 140.221C155.084 140.221 156.122 140.971 157.316 141.312C158.84 141.747 160.802 141.616 162.322 141.312C162.861 141.204 163.487 140.923 163.991 140.734C164.219 140.648 164.461 140.472 164.697 140.413C164.783 140.392 165.016 140.411 164.954 140.349C164.891 140.286 164.614 140.395 164.569 140.413C163.764 140.735 162.885 141.191 162.13 141.568" fill="#000000" fill-rule="nonzero" opacity="1" stroke="#000000" stroke-linecap="round" stroke-linejoin="round" stroke-width="0.719047"/>
<path d="M168.035 140.606C169.358 140.275 170.918 139.261 172.079 138.487" fill="#000000" fill-rule="nonzero" opacity="1" stroke="#000000" stroke-linecap="round" stroke-linejoin="round" stroke-width="0.719047"/>
<path d="M168.292 140.798C169.319 139.771 171.201 139.75 172.271 138.68" fill="#000000" fill-rule="nonzero" opacity="1" stroke="#000000" stroke-linecap="round" stroke-linejoin="round" stroke-width="0.719047"/>
<path d="M168.612 140.927C169.453 140.506 170.834 139.322 171.822 139.322" fill="#000000" fill-rule="nonzero" opacity="1" stroke="#000000" stroke-linecap="round" stroke-linejoin="round" stroke-width="0.719047"/>
<path d="M168.548 140.862C169.71 140.281 170.916 139.775 172.079 139.194" fill="#000000" fill-rule="nonzero" opacity="1" stroke="#000000" stroke-linecap="round" stroke-linejoin="round" stroke-width="0.719047"/>
<path d="M168.805 140.862C168.693 140.862 170.55 139.885 171.116 139.643C171.224 139.596 172.048 139.45 171.693 139.45" fill="#000000" fill-rule="nonzero" opacity="1" stroke="#000000" stroke-linecap="round" stroke-linejoin="round" stroke-width="0.719047"/>
<path d="M168.933 140.991C169.894 140.67 170.685 140.019 171.565 139.579" fill="#000000" fill-rule="nonzero" opacity="1" stroke="#000000" stroke-linecap="round" stroke-linejoin="round" stroke-width="0.719047"/>
<path d="M162.836 142.788C164.028 142.39 165.473 142.254 166.623 141.761C167.863 141.229 168.935 139.707 170.41 139.707" fill="#000000" fill-rule="nonzero" opacity="1" stroke="#000000" stroke-linecap="round" stroke-linejoin="round" stroke-width="0.719047"/>
<path d="M162.772 142.66C163.228 142.432 163.879 142.456 164.376 142.339C166.408 141.861 171.686 139.975 172.849 138.231" fill="#000000" fill-rule="nonzero" opacity="1" stroke="#000000" stroke-linecap="round" stroke-linejoin="round" stroke-width="0.719047"/>
<path d="M159.947 142.21C160.204 142.146 160.461 142.082 160.718 142.018" fill="#000000" fill-rule="nonzero" opacity="1" stroke="#000000" stroke-linecap="round" stroke-linejoin="round" stroke-width="0.719047"/>
<path d="M150.255 133.353C150.255 132.766 150.725 131.77 151.282 131.491" fill="#000000" fill-rule="nonzero" opacity="1" stroke="#000000" stroke-linecap="round" stroke-linejoin="round" stroke-width="0.719047"/>
<path d="M149.934 133.288C149.65 132.72 150.342 131.929 150.833 131.684" fill="#000000" fill-rule="nonzero" opacity="1" stroke="#000000" stroke-linecap="round" stroke-linejoin="round" stroke-width="0.719047"/>
<path d="M149.87 133.288C149.87 132.568 150.5 131.756 151.09 131.363" fill="#000000" fill-rule="nonzero" opacity="1" stroke="#000000" stroke-linecap="round" stroke-linejoin="round" stroke-width="0.719047"/>
<path d="M149.613 133.481C149.907 132.308 151.01 131.306 152.052 130.785" fill="#000000" fill-rule="nonzero" opacity="1" stroke="#000000" stroke-linecap="round" stroke-linejoin="round" stroke-width="0.719047"/>
<path d="M149.678 133.802C149.678 132.818 150.67 131.476 151.539 131.042" fill="#000000" fill-rule="nonzero" opacity="1" stroke="#000000" stroke-linecap="round" stroke-linejoin="round" stroke-width="0.719047"/>
<path d="M149.421 133.674C149.421 132.166 153.14 129.289 154.427 128.86" fill="#000000" fill-rule="nonzero" opacity="1" stroke="#000000" stroke-linecap="round" stroke-linejoin="round" stroke-width="0.719047"/>
<path d="M160.846 127.255C160.981 127.187 163.739 126.467 163.157 126.613" fill="#000000" fill-rule="nonzero" opacity="1" stroke="#000000" stroke-linecap="round" stroke-linejoin="round" stroke-width="0.719047"/>
<path d="M160.525 127.255C160.715 126.875 162.619 126.87 163.157 126.87C163.344 126.87 164.298 126.87 164.055 126.87" fill="#000000" fill-rule="nonzero" opacity="1" stroke="#000000" stroke-linecap="round" stroke-linejoin="round" stroke-width="0.719047"/>
<path d="M162.13 126.934C162.525 126.736 164.087 126.34 164.505 126.549C164.922 126.758 165.181 127.141 165.724 126.87" fill="#000000" fill-rule="nonzero" opacity="1" stroke="#000000" stroke-linecap="round" stroke-linejoin="round" stroke-width="0.719047"/>
<path d="M166.173 138.552C166.173 138.207 166.434 139.29 166.173 139.707C165.839 140.242 165.027 140.34 164.569 140.798" fill="#000000" fill-rule="nonzero" opacity="1" stroke="#000000" stroke-linecap="round" stroke-linejoin="round" stroke-width="0.719047"/>
<path d="M158.856 141.954C159.945 141.228 161.551 141.774 162.707 141.312" fill="#000000" fill-rule="nonzero" opacity="1" stroke="#000000" stroke-linecap="round" stroke-linejoin="round" stroke-width="0.719047"/>
<path d="M159.177 141.633C160.56 141.633 161.865 140.991 163.221 140.991" fill="#000000" fill-rule="nonzero" opacity="1" stroke="#000000" stroke-linecap="round" stroke-linejoin="round" stroke-width="0.719047"/>
</g>
<g id="Слой-1" vectornator:layerName="Слой 1">
<path d="M121.206 167.888C121.206 167.888 118.189 175.891 118.546 184.841C119.003 196.285 120.215 201.706 123.328 207.872C126.44 214.037 134.425 211.299 134.425 211.299C134.425 211.299 134.907 211.885 134.875 215.596C134.833 220.438 137.363 226.395 140.953 229.496C144.906 232.909 155.886 230.883 155.886 230.883C155.886 230.883 157.122 236.26 159.509 240.401C160.656 242.393 161.219 243.634 163.394 245.375C165.568 247.116 168.207 247.366 168.207 247.366C168.207 247.366 171.62 247.62 174.007 246.029C176.394 244.438 181.1 239.043 181.1 239.043C181.1 239.043 183.546 242.173 185.586 244.784C186.053 245.383 190.795 252.361 192.47 253.394C195.569 255.303 194.668 254.695 197.045 255.984C197.842 256.416 202.77 257.626 206.563 255.828C209.626 254.377 214.731 248.111 216.201 245.728C216.594 245.091 219.163 247.38 221.364 248.78C223.578 250.187 232.383 253.694 237.765 251.007C240.239 249.772 245.341 246.943 247.079 240.581C247.598 238.685 248.36 236.09 250.963 235.325C253.07 234.705 257.13 238.909 262.445 236.819C267.617 234.785 269.412 234.785 270.503 230.898C270.953 229.295 272.84 207.041 275.468 206.817C276.899 206.695 285.827 192.166 285.913 183.221C285.969 177.368 285.651 171.056 283.891 163.545C282.842 159.067 274.353 143.733 273.405 150.473C273.127 152.449 271.759 158.543 266.997 165.854C264.559 169.596 258.224 176.717 254.474 179.352C248.283 183.701 234.805 189.843 227.706 193.156C223.104 195.304 210.519 199.618 201.442 199.448C193.936 199.307 181.967 199.381 174.002 197.97C164.378 196.264 155.093 193.347 148.144 190.931C138.382 187.537 121.006 168.333 120.583 167.792" fill="#000000" fill-rule="nonzero" opacity="1" stroke="#000000" stroke-linecap="butt" stroke-linejoin="round" stroke-width="2"/>
</g>
<g id="Слой-2" vectornator:layerName="Слой 2">
<path d="M116.921 41.4262L112.142 51.7539C112.142 51.7539 109.695 56.7622 111.834 59.1528C114.455 62.0815 115.688 64.0854 115.688 64.0854L115.071 70.7136C115.071 70.7136 114.57 78.1125 115.225 77.8042C115.88 77.4959 116.459 71.176 117.692 69.4804C118.925 67.7848 119.233 62.6981 119.233 62.6981L116.767 57.4572C116.767 57.4572 114.68 54.4152 116.15 52.0622C118.462 48.3627 116.921 46.3588 116.921 46.3588L116.921 41.4262Z" fill="#fde78d" fill-rule="nonzero" opacity="1" stroke="#fde78d" stroke-linecap="butt" stroke-linejoin="round" stroke-width="2"/>
<path d="M252.555 26.8032C252.555 26.8032 254.686 32.7432 255.852 36.6187C257.017 40.4943 257.721 39.4816 257.218 42.3055C256.716 45.1294 254.646 47.0574 254.646 47.0574C254.646 47.0574 255.791 48.6155 255.611 50.6409C255.43 52.6663 253.922 55.1591 253.922 55.1591C253.922 55.1591 255.168 46.0837 254.967 41.8381C254.766 37.5925 254.676 37.7872 254.676 37.7872L254.297 36.232C254.297 36.232 252.991 35.4704 252.555 33.1132C252.12 30.756 252.555 26.8032 252.555 26.8032Z" fill="#fde78d" fill-rule="nonzero" opacity="1" stroke="#fde78d" stroke-linecap="butt" stroke-linejoin="round" stroke-width="2"/>
</g>
</svg>
