<svg version="1.2" xmlns="http://www.w3.org/2000/svg" viewBox="0 0 305 675" width="305" height="675">
	<title>Vine-svg</title>
	<style>
		.s0 { fill: #a00124 } 
		.s1 { fill: #722637 } 
		.s2 { fill: #df0335 } 
		.s3 { fill: #dddddd } 
		.s4 { fill: #600110 } 
	</style>
	<g id="Без-названия">
		<path id="Layer" class="s0" d="m108 23.2c29.6 9.1 29 41.8 29 66.8c0 8-0.4 16.1-1.2 24c-0.7 7.8-1.8 14.1-0.8 22c-3.7 5.6-1.4 15.5-1.6 22c-0.2 4.3-1.4 8.7-1.6 13c-0.4 14.5 3.2 31 6.8 45c1.9 7.1 7.9 12.7 8.4 20c3.9 1.3 6.6 4.7 9.9 7.1c5 3.6 11.3 7.1 17.2 9.1c16.2 5.4 33.4 2.8 49.9 5c8.3 1.1 18.4 4.7 26.1 8c9.2 4 13.7 8.2 17 17.8c1.1 3.2 2.1 5.8 0.9 9c-5.2-15.2-26-19-40-19c-23.7 0-46.7 4.1-69.9 8.3c-11 1.9-24.9 7.3-36 2.7c-5.8-2.4-8.6-8.3-10.1-14c-3.1-12-0.6-25.3-4-37c-0.1 18.8-6 39.6 2.9 57.3c2.8 5.6 3.7 14 10.2 15.9c5.8 10.6 28.3 5.9 37.9 4.1c18.3-3.5 36.3-5.3 55-3.5c9.2 0.9 18.5 2.8 25.4 9.7c8.6 8.5 5.5 25 1.3 35.2c-1.9 4.5-6.9 8.2-5.7 13.3c-6.3 3.4-12.7 7-19.3 10c-4.5 2.1-9 3.8-13.7 5.1c-6.4 1.7-12.6 1.4-19 2.2c-19 2.3-36.1 1-55-1.7c-3.3-0.5-6.7 0-10-0.7c-9.4-2-26.9-8.8-26.9-8.8c0 0-2.6-1.3-4.3-2c-1.5-0.6-4.5-2.4-4.5-2.4c-2.8-1.5-3.6-2.1-5.8-3.3c-5-2.7-9.8-9.3-13.6-13.5c-18.1-19.3-21.8-47.6-18.3-72.9c0.8-6 1.5-17.3 3.7-23c1.3-6.6 4-13.4 6.2-20c4.1-12.2 8.9-24 13.6-36c2.2-5.9 9.5-26.9 14.9-30.5c-1 4-8.2 18.7-9.5 22.5c-1.1 3.6-1 7.4-2.2 11c-2.4 7.7-5.9 15.2-8.3 23c-1.8 6.2-2.3 12.8-4 19c-5.1 18.6-9.5 36.6-7.2 56c2.1 17.4 9 39.5 29.2 43c-6.5-6.2-13.7-10.3-17.7-19c-6.5-14.1-6.7-31.8-4.2-46.9c0.6-3.5 2.1-6.6 2.6-10.1c3.3-24.4 6.9-50.4 14.4-74c3.4-10.9 8.3-20.9 13-31.3q0.6-1.3 1.2-2.7c2.3-5 5.6-11.6 3.7-17c-1 3.2-3.6 14.1-5.7 16.7c-0.6 0.7 0.4-5.9-0.5-5.4l1.4-3.2l0.6-1.5l3.2-7.6l2.6-6.8c0 0 0.8-2.3 2.9-7c1.9-4.5 1.2-2.5 2.6-5.5c1.6-3.9 1.8-0.4 2.1-4.5c4.5-2.6 2.5-3.3 4.5-7.8c1.1-2.4 3-4.7 3.4-7.4c0.3-2.4-0.7-4.6-0.1-7c0.8-3.5 3.1-6.5 4.1-10c5.6-18.8 10.1-40.6-7.5-54.8c-5.4-4.3-13.2-3.8-18.6-8.2c6.6 0 12.6 0.2 19 2.2z" />
		<path id="Layer" class="s1" d="m104 27c1.5 1.1 2.2 1.4 4 2c-1.5-1.3-2-1.5-4-2z" />
		<path id="Layer" class="s2" d="m107.7 109.3c-0.6 1.3-0.9 2.9-1.3 4.1c-0.8 2.4-1.7 4.1-4.4 5.6q0.3-1.1 0.6-2.2c2.2-6.7 5.9-15.6 8.3-22.2c3.1 4.7-1.2 10.2-3.2 14.7z" />
		<path id="Layer" class="s3" d="m76.9 124c-3.8 16.9-10.9 32.8-17.1 49c-12.1 31.9-23.4 64.1-28.2 98c-2.8 20-3.2 41.9 4.3 61c10.5 26.4 35.4 43.7 61.1 53.4c38.6 14.6 82.6 14 121-0.6c14.9-5.7 32.4-14.1 43.3-26.1c11.2-12.3 18.2-28.5 21.2-44.7c3.1-16.3 1.3-32.8-1.2-49c-5.1-32.6-16.9-63.3-28.3-94c-5.4-14.3-11.2-28.5-16-43c-1.7-5.1-5.5-12.8-4-18c22.1 53.1 49.1 104.3 57.1 162c3.1 22.1 4.5 48.8-3.9 70c-6.7 16.9-17.8 31.2-32.3 42.1c-23.2 17.2-51.9 25.2-71.8 46.9c-14.1 15.4-15.1 36.3-15.1 56c0 27.7 1 55.3 1 83c0 8.3 0.5 16.7-0.1 25c-0.5 7.7-1.6 15.7 1.9 23c3.7 7.9 12.2 10.8 20.2 12.4c16.2 3.3 42-1.3 53 13.6h-172c11-14.9 35.8-10.3 52-13.6c8.2-1.7 17-4.3 20.8-12.4c2.8-6 2.2-12.6 2.2-19v-29v-81c0-8.7 0-17.3-1-25.6c-1.5-12.5-5.4-24.2-15-34.4c-29.4-30.9-82.5-36.4-99.3-80c-12.6-33-10.7-66.8-2.6-101c11.6-48.9 34-92.8 52.9-139c1.3 5.5-2.9 9.9-4.1 15z" />
		<path id="Layer" class="s4" d="m136 147c0.1 8.3 0.1 18.2 1.3 25.5c-1.6 0.5-4 3.9-3.7 0.8c1.8 0 2.2-1.8 3.7-0.8c-0.1 0.8 0.2 1.6 0.2 2.4c0.5 7.6 3.3 17.1 5.1 24.1c2.3 8.7 5.3 17.2 9.7 25c17 29.5 54.1 25.4 82.7 31.8c15.1 3.4 28.8 11.9 33.7 27.2c1.3 4.4 3.1 9.6 1.3 14c-1-7.8-2.8-16.6-7.6-23c-5.6-7.5-15.8-10.1-24.4-12.4c-4.9-1.4-10-3.7-15-4.4c-6.2-0.8-12.7 0-19-0.2c-9.6-0.5-20.7-2-29.9-4.6c-6.1-1.6-10.8-4.4-16.2-6.9c-7.7-3.6-8.5-6.1-10.9-9.5c-4-5.6-5.7-11.1-7.8-17c-2.3-6.7-5.2-21.7-5.2-21.7c0 0-0.8-4.1-1.1-6.1c-0.6-4.8-2-10-2-14.9c-0.1-10.3-0.7-20 1.2-30c0.5-2.8 0.8-10.7 0.7-14c3.4 2.6 3.2 10.7 3.2 14.7z" />
		<path id="Layer" class="s2" d="m90.8 158c-5.6 12.9-12.7 25.2-15.8 39c-5.1 23.3-10.1 46.5-13.3 70c-0.7 5.4-2.8 10.5-3.4 16c-1.5 12.8 0 26 4.6 38c1.8 4.7 6.2 9.9 9.9 13.3c2.9 2.7 5.9 4.5 8.2 7.7c-8.4-0.8-13.3-4.1-18.2-10.5c-1.6-2.2-4-5.4-5.4-7.8c-5.1-8.5-5.9-21-6.4-30.7c-0.8-18.5 4.1-35.3 8.5-53c1.4-5.6 1.9-11.5 3.5-17c2.4-7.8 5.9-15.3 8.3-23c1.3-3.9 1.1-8.1 2.6-11.9c2.4-6.1 5.7-12.9 8.6-19.3c2.1-4.7 5.4-7.8 6.3-12.7l3-7.9c1.7-4.8 0.1-2.5 2.2-7.2c2.6 4.9-1.2 12.3-3.2 17z" />
		<path id="Layer" class="s0" d="m88.2 158.8c-2.6 7-7.7 15-9.8 17.4c0.8-6.8 8.9-21.5 11.1-27.9c0.6 2.1 0.4 6.1-1.3 10.5z" />
		<path id="Layer" class="s2" d="m111 244c0.5 12.3-1.7 34.5 12 40c11.4 4.5 24-1.5 35.1-2.9c8.9-1.1 17.1-5.2 25.8-6.6c13-2.1 26.6-1.5 40.1-1.5c3.6 0 7.5-0.6 11.1-0.4c7.2 0.6 14.2 2.6 20.9 5.9c6 2.9 11.1 6.1 13.4 11.8c5.1 13.3 0.5 33.1-5.7 44.5c-3.5 6.4-5.6 11.4-10.5 16.5c-5.1 5.3-12.7 13-20.2 14.5c3.4-8.9 9.6-16.7 10.8-26.8c0.6-4.6 1.4-10.5-0.2-15c-2.2-6.3-7-9.2-12.6-12.2c-7.2-3.8-14.9-3.9-23.2-4.4c-7.5-0.3-15.5-1.3-22.8-0.6c-4.3 0.4-7.5 2.3-11.8 3.1c-5.3 1-11.9 0.1-17.2 1.4c-7.5 1.7-18.3 3.4-25.7 1.2c-3.8-1.1-5.6-1.9-9.3-5.5c-7.6-2.2-7.6-11-10.6-16.7c-8.8-17.2-2.6-38.9-2.4-57.3c1.5 3.5 2.8 7.3 3 11z" />
		<path id="Layer" class="s2" d="m97.1 350.6c5.8-1.6 12-2.5 17.9-3.9c16.5-3.7 33-10.2 48.9-16.3c2.2-0.8 3.9-2.5 6.2-3.1c10-2.5 22.6-3.9 32.9-3.2c5.4 0.4 10.5 1.9 16 1.9v2c-10.9-0.9-23.2-2.7-34-0.5c-24.7 5-46.3 19.3-71 24.3c-13 2.7-31.6 8.2-44 1.2c1.7-1.1 3-1.5 5-2c6.2 4.7 15.4 1.3 22.1-0.4z" />
	</g>
</svg>